<svg xmlns="http://www.w3.org/2000/svg" xmlns:xlink="http://www.w3.org/1999/xlink" fill="none" version="1.1" width="54.754638671875" height="54.7548828125" viewBox="0 0 54.754638671875 54.7548828125"><defs><filter id="master_svg0_3137_12498" filterUnits="objectBoundingBox" color-interpolation-filters="sRGB" x="-0.21568765999538755" y="-0.12665002579744677" width="1.431375319990775" height="1.3799501066544169"><feFlood flood-opacity="0" result="BackgroundImageFix"/><feColorMatrix in="SourceAlpha" type="matrix" values="0 0 0 0 0 0 0 0 0 0 0 0 0 0 0 0 0 0 127 0"/><feOffset dy="1.8058363199234009" dx="0"/><feGaussianBlur stdDeviation="1.354377031326294"/><feColorMatrix type="matrix" values="0 0 0 0 0.007843137718737125 0 0 0 0 0.7333333492279053 0 0 0 0 0.9960784316062927 0 0 0 0.20000000298023224 0"/><feBlend mode="normal" in2="BackgroundImageFix" result="effect1_dropShadow"/><feBlend mode="normal" in="SourceGraphic" in2="effect1_dropShadow" result="shape"/></filter><linearGradient x1="0.5" y1="1" x2="0.5" y2="0" id="master_svg1_626_8086"><stop offset="0%" stop-color="#03AEFF" stop-opacity="1"/><stop offset="100%" stop-color="#01E5F5" stop-opacity="1"/></linearGradient><linearGradient x1="0.5" y1="0.9901062250137329" x2="0.5" y2="0" id="master_svg2_626_8094"><stop offset="0%" stop-color="#03ACFF" stop-opacity="1"/><stop offset="100%" stop-color="#01E7F5" stop-opacity="1"/></linearGradient><linearGradient x1="0.5" y1="0.38422733545303345" x2="0.5" y2="1.808132290840149" id="master_svg3_626_8089"><stop offset="0%" stop-color="#D0FAFF" stop-opacity="1"/><stop offset="100%" stop-color="#5DD8FF" stop-opacity="1"/></linearGradient><linearGradient x1="0.5" y1="0.38422733545303345" x2="0.5" y2="1.808132290840149" id="master_svg4_626_8097"><stop offset="0%" stop-color="#FFFFFF" stop-opacity="1"/><stop offset="100%" stop-color="#6DFDFF" stop-opacity="1"/></linearGradient></defs><g><g><g><ellipse cx="27.377317428588867" cy="27.377317428588867" rx="27.377317428588867" ry="27.377317428588867" fill="#F4F4F4" fill-opacity="1"/></g></g><g><g filter="url(#master_svg0_3137_12498)"><g><ellipse cx="27.376782417297363" cy="19.714184284210205" rx="6.596020698547363" ry="6.596020221710205" fill="url(#master_svg1_626_8086)" fill-opacity="1"/></g><g><path d="M14.818115234375 34.46696901321411C14.818115234375 30.5081141160149 18.0274012253899 27.298828125 21.98625612258911 27.298828125L32.76735067367554 27.298828125C36.72620557087475 27.298828125 39.93549156188965 30.5081141160149 39.93549156188965 34.46696901321411L39.93549156188965 37.120519161224365C39.93549156188965 39.61385877876627 37.9142404392277 41.63510990142822 35.42090082168579 41.63510990142822L19.332705974578857 41.63510990142822C16.839366357036955 41.63510990142822 14.818115234375 39.61385877876627 14.818115234375 37.120519161224365Z" fill="url(#master_svg2_626_8094)" fill-opacity="1"/></g><g style="opacity:0.800000011920929;"><path d="M24.3935546875 27.298828125C24.3935546875 27.298828125 24.3935546875 27.298828125 24.3935546875 27.298828125L30.359997749328613 27.298828125C30.359997749328613 27.298828125 30.359997749328613 27.298828125 30.359997749328613 27.298828125L30.359997749328613 33.137065410614014C30.359997749328613 34.78465316750486 29.02436397530515 36.12028694152832 27.376776218414307 36.12028694152832L27.376776218414307 36.12028694152832C25.729188461523464 36.12028694152832 24.3935546875 34.78465316750486 24.3935546875 33.137065410614014Z" fill="url(#master_svg3_626_8089)" fill-opacity="1"/></g><g><rect x="26.093994140625" y="29.2412109375" width="2.565690755844116" height="4.33661413192749" rx="1.282845377922058" fill="url(#master_svg4_626_8097)" fill-opacity="1"/></g></g></g></g></svg>