<svg xmlns="http://www.w3.org/2000/svg" xmlns:xlink="http://www.w3.org/1999/xlink" fill="none" version="1.1" width="17" height="17" viewBox="0 0 17 17"><g><g transform="matrix(0.9943597912788391,-0.10605957359075546,0.10605957359075546,0.9943597912788391,-0.42452210100600496,0.09925553114408103)"><path d="M14.963852265625,5.935175425L7.887985665625,15.080611625C7.642650565625,15.541820625,7.142693965625,15.809112625,6.622780365625,15.758251625C6.102864765625,15.707388625,5.665366665625,15.348344625,5.514064265625,14.848333625L5.031263365625,12.677098225C4.866734065625,12.133422825,5.077170865625,11.546104425,5.549531965625,11.230634725L10.700612065625,7.7904048249999995C10.840959265625,7.696711025,10.885353265625,7.510667325,10.802434265625,7.363696625C10.719516765625,7.216725825,10.537322065625,7.158522625,10.384555865625,7.230202625L5.694913365625,10.231325125C5.227652565625,10.450103725,4.675175865625,10.369825325,4.289949465625,10.026606125L1.152391255625,7.715642025C0.752922531625,7.3595743250000005,0.615101365625,6.794053325,0.805456213625,6.293926225C0.995811075625,5.793798925,1.4745191956250001,5.463086125,2.009640665625,5.462746625L13.825195265625,4.041015625C14.311799265625,4.040982276201,14.710693265625,4.299700285,14.930821265625,4.665837585C15.150949265625,5.031974915,15.192312265625,5.505531525,14.963852265625,5.935175425L14.963852265625,5.935175425Z" fill="#01BB74" fill-opacity="1" style="mix-blend-mode:passthrough"/></g></g></svg>