<svg xmlns="http://www.w3.org/2000/svg" xmlns:xlink="http://www.w3.org/1999/xlink" fill="none" version="1.1" width="30.491943359375" height="30.49200439453125" viewBox="0 0 30.491943359375 30.49200439453125"><defs><clipPath id="master_svg0_126_16618"><rect x="0" y="0" width="30.492000579833984" height="30.492000579833984" rx="0"/></clipPath></defs><g><g clip-path="url(#master_svg0_126_16618)"><g><path d="M5.4384765625,25.94334609375L5.4638865625,25.20644609375C5.5655265625,21.03924609375,7.3442265625,17.45644609375,9.9614565625,15.83014609375C8.2589865625,14.78837609375,7.1409465625,12.78098609375,7.1409465625,10.57031609375C7.1409465625,7.241606093750001,9.656536562500001,4.80224609375,12.731146562500001,4.80224609375C15.8057765625,4.80224609375,18.3213765625,7.21619609375,18.3213765625,10.57031609375C18.3213765625,12.67934609375,17.304976562500002,14.58509609375,15.7040765625,15.67774609375L15.7294765625,15.67774609375L16.390176562500002,15.95724609375Q14.5860765625,17.63434609375,14.0524665625,19.92114609375Q13.2393465625,23.47864609375,16.0344765625,25.94334609375L5.4384765625,25.94334609375Z" fill="#01BB74" fill-opacity="1"/></g><g><ellipse cx="20.146594047546387" cy="21.235461235046387" rx="4.900500297546387" ry="4.900500297546387" fill="#01BB74" fill-opacity="1"/></g><g><rect x="17.42431640625" y="20.69091796875" width="5.445000171661377" height="1.0889999866485596" rx="0.5444999933242798" fill="#FFFFFD" fill-opacity="1"/></g><g transform="matrix(0,1,-1,0,39.203857421875,-2.177978515625)"><rect x="20.69091796875" y="18.512939453125" width="5.445000171661377" height="1.0889999866485596" rx="0.5444999933242798" fill="#FFFFFD" fill-opacity="1"/></g></g></g></svg>