<svg xmlns="http://www.w3.org/2000/svg" xmlns:xlink="http://www.w3.org/1999/xlink" fill="none" version="1.1" width="17.59407615661621" height="17.59407615661621" viewBox="0 0 17.59407615661621 17.59407615661621"><defs><clipPath id="master_svg0_625_05923"><rect x="0" y="0" width="17.59407615661621" height="17.59407615661621" rx="0"/></clipPath></defs><g clip-path="url(#master_svg0_625_05923)"><g><path d="M8.7970168359375,17.5940009765625C4.6227368359375,17.5814009765625,1.0320868359375,14.6369009765625,0.2022168359375,10.5459009765625C-0.6276551640625,6.4549209765625,1.5317768359375,2.3440109765625,5.3711768359375,0.7057739765625C9.8135468359375,-1.0489390234375,14.8444568359375,1.0617469765625,16.7050568359375,5.4608209765625C18.5656568359375,9.8599009765625,16.5761568359375,14.9399009765625,12.2228568359375,16.9054009765625C11.1388568359375,17.3630009765625,9.9736668359375,17.5973009765625,8.7970168359375,17.5940009765625ZM8.7970168359375,1.3771709765625C4.6997768359375,1.3771709765625,1.3772268359375,4.7169409765625,1.3772268359375,8.7969709765625C1.3772268359375,12.8770009765625,4.6997768359375,16.2168009765625,8.7970168359375,16.2168009765625C12.8942568359375,16.2168009765625,16.2168568359375,12.8942009765625,16.2168568359375,8.7969709765625C16.2168568359375,4.6997209765625,12.8770568359375,1.3771709765625,8.7970168359375,1.3771709765625Z" fill="#D8D8D8" fill-opacity="1"/></g><g><path d="M5.5089140546875,12.773724453125C5.2334170546875,12.769854453125,4.9867480546875,12.602144453125,4.8818425546875,12.347364453125C4.7769369546875,12.092594453124999,4.8339919346875,11.799824453125,5.0268850546875,11.603084453125L11.5859160546875,5.044052453125C11.8569260546875,4.773307653125,12.2960760546875,4.773415153125,12.566946054687499,5.044293453125C12.8378260546875,5.315170453125,12.8379360546875,5.754316453125,12.5671860546875,6.025324453125L6.0081560546875,12.567144453125C5.8768360546875,12.701134453125,5.6965220546875,12.775754453125,5.5089140546875,12.773724453125Z" fill="#D8D8D8" fill-opacity="1"/></g><g><path d="M12.06796357421875,12.773854609375C11.88632357421875,12.771264609374999,11.71307357421875,12.697014609375,11.58593357421875,12.567264609375L5.02690157421875,6.008234609375C4.75615727421875,5.737225609375,4.75626427421875,5.298080609375,5.02714157421875,5.027203609375C5.29801857421875,4.756325809375,5.73716457421875,4.756218309375,6.00817357421875,5.026962609375L12.54999357421875,11.603204609375C12.74288357421875,11.799944609375,12.79994357421875,12.092724609375,12.695033574218751,12.347494609375001C12.59013357421875,12.602264609375,12.343463574218749,12.769974609375,12.06796357421875,12.773854609375Z" fill="#D8D8D8" fill-opacity="1"/></g></g></svg>