<svg xmlns="http://www.w3.org/2000/svg" xmlns:xlink="http://www.w3.org/1999/xlink" fill="none" version="1.1" width="22" height="22" viewBox="0 0 22 22"><defs><clipPath id="master_svg0_6171_04434"><rect x="1" y="1.5" width="20" height="19" rx="0"/></clipPath></defs><g><g><g clip-path="url(#master_svg0_6171_04434)"></g><g><path d="M18.457552734375,2.1395263671875L3.542482734375,2.1395263671875C2.228512734375,2.1395263671875,1.154052734375,3.2139863671875,1.154052734375,4.5279563671875L1.154052734375,17.4720263671875C1.154052734375,18.7860263671875,2.228512734375,19.8604263671875,3.542482734375,19.8604263671875L18.457552734375,19.8604263671875C19.771452734375,19.8604263671875,20.845952734375,18.7860263671875,20.845952734375,17.4720263671875L20.845952734375,4.5279563671875C20.845952734375,3.2139863671875,19.771452734375,2.1395263671875,18.457552734375,2.1395263671875ZM13.381852734375,17.564326367187498C13.102752734375,17.8565263671875,12.713852734375,18.0235263671875,12.311752734375,18.0235263671875L12.305152734375,18.0235263671875L3.922602734375,17.9840263671875C3.533692734375,17.9840263671875,3.166752734375,17.8104263671875,2.918452734375,17.5072263671875C2.672362734375,17.204026367187502,2.575682734375,16.8106263671875,2.652592734375,16.428326367187502C3.074462734375,14.3739263671875,4.597172734375,12.7633263671875,6.524172734375,12.1546263671875C5.634272734375,11.5899663671875,5.038822734375,10.5968063671875,5.038822734375,9.4652063671875C5.038822734375,7.7073963671875,6.469242734375,6.2769763671875,8.227052734375,6.2769763671875C9.984862734375,6.2769763671875,11.415252734375,7.7073963671875,11.415252734375,9.4652063671875C11.415252734375,10.5946063671875,10.824222734375,11.5855663671875,9.934322734375,12.1524263671875C11.780052734375,12.7303263671875,13.247852734375,14.2223263671875,13.744352734375,16.1734263671875C13.768552734375,16.2657263671875,13.781752734375,16.3624263671875,13.788352734375,16.463526367187498C13.810252734375,16.8678263671875,13.663052734375,17.2699263671875,13.381852734375,17.564326367187498ZM18.143352734375,10.4803463671875C16.337152734375,10.4539763671875,14.304652734375,10.4429963671875,13.950952734375,10.4671663671875C13.895952734375,10.4759563671875,13.843252734375,10.4803463671875,13.788352734375,10.4803463671875C13.359852734375,10.4803463671875,12.966552734375,10.1990963671875,12.841352734375,9.7662363671875C12.691852734375,9.243286367187501,12.995152734375,8.6983663671875,13.518052734375,8.5489463671875C13.676252734375,8.5028063671875,13.871852734375,8.4478763671875,18.171852734375,8.5115963671875C18.716752734375,8.5203863671875,19.149652734375,8.9664263671875,19.140852734375,9.5113563671875C19.134252734375,10.0540763671875,18.675052734375,10.4495863671875,18.143352734375,10.4803463671875ZM18.143352734375,6.4747263671875C16.337152734375,6.4483663671875,14.304652734375,6.4373763671875,13.950952734375,6.4615463671875C13.895952734375,6.4703363671875,13.843252734375,6.4747263671875,13.788352734375,6.4747263671875C13.359852734375,6.4747263671875,12.966552734375,6.1934863671875,12.841352734375,5.760616367187501C12.691852734375,5.2376663671875,12.995152734375,4.6927463671875,13.518052734375,4.5433363671875C13.676252734375,4.497196367187501,13.871852734375,4.4422563671875,18.171852734375,4.5059863671875C18.716752734375,4.5147663671875,19.149652734375,4.960816367187499,19.140852734375,5.505736367187501C19.134252734375,6.0462663671875,18.675052734375,6.4373763671875,18.143352734375,6.4747263671875Z" fill="#01BB74" fill-opacity="1"/></g></g></g></svg>