<svg xmlns="http://www.w3.org/2000/svg" xmlns:xlink="http://www.w3.org/1999/xlink" fill="none" version="1.1" width="16.7589111328125" height="16.7589111328125" viewBox="0 0 16.7589111328125 16.7589111328125"><g><g transform="matrix(-1,0,0,-1,23.97894287109375,21.31884765625)"><path d="M18.144071435546877,13.443033828125Q18.162621435546875,13.463323828125,18.178061435546873,13.486083828125Q18.193501435546874,13.508833828125,18.205501435546875,13.533573828125Q18.217501435546875,13.558313828125,18.225811435546873,13.584523828125Q18.234131435546875,13.610723828125,18.238581435546877,13.637863828124999Q18.243041435546875,13.664993828125,18.243541435546874,13.692483828124999Q18.244041435546876,13.719973828125,18.240581435546876,13.747253828125Q18.237121435546875,13.774523828125,18.229771435546876,13.801023828125Q18.222421435546874,13.827513828125,18.211331435546875,13.852673828124999Q18.200241435546875,13.877833828125,18.185651435546873,13.901133828125Q18.171051435546875,13.924433828125,18.153251435546874,13.945393828124999Q18.135451435546877,13.966353828125,18.114831435546876,13.984533828125Q18.094201435546875,14.002713828125,18.071161435546877,14.017723828125Q18.048131435546875,14.032743828125,18.023181435546874,14.044293828125Q17.998231435546874,14.055843828124999,17.971871435546873,14.063673828125001Q17.945521435546876,14.071503828125,17.918311435546876,14.075463828125Q17.891101435546876,14.079423828125,17.863601435546876,14.079423828125L13.335341435546875,14.079423828125Q13.307841435546875,14.079423828125,13.280631435546875,14.075463828125Q13.253421435546874,14.071503828125,13.227071435546875,14.063673828125001Q13.200711435546875,14.055843828124999,13.175761435546875,14.044293828125Q13.150811435546874,14.032743828125,13.127781435546876,14.017723828125Q13.104741435546876,14.002713828125,13.084111435546875,13.984533828125Q13.063491435546876,13.966353828125,13.045691435546875,13.945393828124999Q13.027891435546875,13.924433828125,13.013291435546876,13.901133828125Q12.998701435546876,13.877833828125,12.987612435546875,13.852673828124999Q12.976523435546875,13.827513828125,12.969172435546875,13.801023828125Q12.961821435546875,13.774523828125,12.958360435546876,13.747253828125Q12.954900435546875,13.719973828125,12.955402435546874,13.692483828124999Q12.955905435546875,13.664993828125,12.960359435546875,13.637863828124999Q12.964814435546876,13.610723828125,12.973128435546876,13.584523828125Q12.981442435546874,13.558313828125,12.993441435546876,13.533573828125Q13.005441435546874,13.508833828125,13.020881435546874,13.486083828125Q13.036311435546875,13.463323828125,13.054871435546875,13.443033828125L15.319001435546875,10.966238828125Q15.345701435546875,10.937027828125,15.377851435546875,10.913945828125Q15.410001435546874,10.890863828125,15.446221435546875,10.874901828125Q15.482441435546875,10.858940828125,15.521161435546876,10.850784828125Q15.559891435546875,10.842628828125,15.599471435546874,10.842628828125Q15.639051435546875,10.842628828125,15.677781435546875,10.850784828125Q15.716501435546874,10.858940828125,15.752721435546874,10.874901828125Q15.788941435546874,10.890863828125,15.821091435546876,10.913945828125Q15.853241435546876,10.937027828125,15.879941435546876,10.966238828125L18.144071435546877,13.443033828125Z" fill="#666666" fill-opacity="1"/></g></g></svg>