<svg xmlns="http://www.w3.org/2000/svg" xmlns:xlink="http://www.w3.org/1999/xlink" fill="none" version="1.1" width="22" height="22" viewBox="0 0 22 22"><g><g><g><g><path d="M10.109818125,17.899278125000002Q10.297728124999999,17.899278125000002,10.485418125,17.889978125Q10.673098125,17.880678125,10.860108125,17.862078125Q11.047118125,17.843578125,11.232998125,17.815678124999998Q11.418878125,17.787878125,11.603178125,17.750878125Q11.787478125,17.713978125,11.969758125,17.667878125Q12.152048125,17.621778125,12.331868125,17.566778125Q12.511678125,17.511778125,12.688578125,17.447878125000003Q12.865578125,17.383978125,13.039178125,17.311478125Q13.212778125,17.238978125,13.382678125,17.157878125Q13.552478125,17.076878125,13.718278125,16.987478125000003Q13.883978125,16.898078124999998,14.045178125,16.800678124999997Q14.206278125,16.703178125,14.362578125,16.597878125Q14.518778125,16.492578125,14.669778125,16.379678124999998Q14.820678125,16.266678125,14.965878125,16.146478125Q15.111178125,16.026178125,15.250378125,15.898878125Q15.389678125,15.771578125,15.522478125,15.637578125Q15.655378125,15.503478125,15.781578125,15.363078125Q15.907778125,15.222578125,16.026978125,15.076078125Q16.146178125,14.929478125,16.258178125,14.777278125Q16.370078125,14.624978125,16.474478124999997,14.467378125Q16.578878125,14.309778125,16.675478124999998,14.147178125Q16.772078125,13.984578125,16.860678125,13.817378125Q16.949278125,13.650178125,17.029578125,13.478778125Q17.109978124999998,13.307478125,17.181878125,13.132278125Q17.253778125,12.957178125,17.317078125000002,12.778678125Q17.380378125,12.600178125,17.434978125,12.418798125Q17.489478124999998,12.237388125,17.535178125,12.053508125Q17.580778125000002,11.869618125,17.617478124999998,11.683698125Q17.654078124999998,11.497768125,17.681678124999998,11.310258125Q17.709278125,11.122738125,17.727678125,10.934088125Q17.746078125,10.745428125,17.755378125,10.556088125Q17.764578125,10.366748125,17.764578125,10.177188125Q17.764578125,9.987618125000001,17.755378125,9.798278125Q17.746078125,9.608938125,17.727678125,9.420288124999999Q17.709278125,9.231638125,17.681678124999998,9.044118125Q17.654078124999998,8.856598125,17.617478124999998,8.670678125Q17.580778125000002,8.484748125,17.535178125,8.300868125000001Q17.489478124999998,8.116978125,17.434978125,7.935578125Q17.380378125,7.754168125,17.317078125000002,7.575688125Q17.253778125,7.397198125,17.181878125,7.222058125Q17.109978124999998,7.046928125,17.029578125,6.875558125Q16.949278125,6.704188125,16.860678125,6.537008125Q16.772078125,6.369828125,16.675478124999998,6.207228125Q16.578878125,6.044628125,16.474478124999997,5.8870081249999995Q16.370078125,5.7293981249999995,16.258178125,5.577128125Q16.146178125,5.424868125,16.026978125,5.278328125Q15.907778125,5.1317981249999995,15.781578125,4.991338125Q15.655378125,4.8508781249999995,15.522578125,4.716828125Q15.389678125,4.582788125,15.250378125,4.455478125Q15.111178125,4.328178125,14.965878125,4.207918125Q14.820678125,4.087658125,14.669778125,3.974728125Q14.518778125,3.861808125,14.362578125,3.7564881249999997Q14.206278125,3.651168125,14.045178125,3.553708125Q13.883978125,3.4562581249999997,13.718278125,3.366895125Q13.552478125,3.277533125,13.382678125,3.196483125Q13.212778125,3.115433125,13.039178125,3.042888125Q12.865578125,2.970344125,12.688578125,2.906481125Q12.511678125,2.842618125,12.331868125,2.7875891250000002Q12.152048125,2.732561125,11.969758125,2.686500125Q11.787478125,2.640439125,11.603178125,2.603456125Q11.418878125,2.566473125,11.232998125,2.538658325Q11.047118125,2.510843025,10.860108125,2.492262225Q10.673098125,2.473681325,10.485418125,2.464379745Q10.297728124999999,2.455078125,10.109818125,2.455078125Q9.921898125,2.455078125,9.734208125,2.464379745Q9.546528125,2.473681325,9.359518125000001,2.492262225Q9.172508125,2.510843025,8.986628125,2.538658325Q8.800748125,2.566473125,8.616448125,2.603456125Q8.432148125000001,2.640439125,8.249868124999999,2.686500125Q8.067578125,2.732561125,7.887758125,2.7875891250000002Q7.707938125,2.842618125,7.531008125,2.906481125Q7.354078125,2.970344125,7.180468125,3.042888125Q7.006858125,3.115433125,6.836988125,3.196483125Q6.667118125,3.277533125,6.501398125,3.366895125Q6.335668125,3.4562581249999997,6.174488125,3.553708125Q6.013318125,3.651168125,5.857068125,3.7564881249999997Q5.700828125,3.861808125,5.549888125,3.974728125Q5.398958125,4.087658125,5.253698125,4.207918125Q5.108438125,4.328178125,4.969208125,4.455478125Q4.829968125000001,4.582788125,4.697098125,4.716828125Q4.564228125,4.8508781249999995,4.438028125,4.991338125Q4.3118381249999995,5.1317981249999995,4.192618125,5.278328125Q4.073408125,5.424868125,3.9614681249999997,5.577128125Q3.849528125,5.7293981249999995,3.745138125,5.8870081249999995Q3.640738125,6.044628125,3.5441281250000003,6.207228125Q3.4475211249999997,6.369828125,3.358939125,6.537008125Q3.270358125,6.704188125,3.1900141250000003,6.875558125Q3.109671125,7.046928125,3.037760125,7.222058125Q2.965849125,7.397198125,2.9025431250000002,7.575688125Q2.839237125,7.754168125,2.784688125,7.935578125Q2.730140125,8.116978125,2.684481125,8.300868125000001Q2.638822125,8.484748125,2.602162125,8.670678125Q2.565502125,8.856598125,2.537929025,9.044118125Q2.510356425,9.231638125,2.491937725,9.420288124999999Q2.473519025,9.608938125,2.464298585,9.798278125Q2.455078125,9.987618125000001,2.455078125,10.177188125Q2.455078125,10.366748125,2.464298585,10.556088125Q2.473519025,10.745428125,2.491937725,10.934088125Q2.510356425,11.122738125,2.537929025,11.310258125Q2.565502125,11.497768125,2.602162125,11.683698125Q2.638822125,11.869618125,2.684481125,12.053508125Q2.730140125,12.237388125,2.784688125,12.418798125Q2.839237125,12.600178125,2.9025431250000002,12.778678125Q2.965849125,12.957178125,3.037760125,13.132278125Q3.109671125,13.307478125,3.1900141250000003,13.478778125Q3.270358125,13.650178125,3.358939125,13.817378125Q3.4475211249999997,13.984578125,3.5441281250000003,14.147178125Q3.640738125,14.309778125,3.745138125,14.467378125Q3.849528125,14.624978125,3.9614681249999997,14.777278125Q4.073408125,14.929478125,4.192618125,15.076078125Q4.3118381249999995,15.222578125,4.438028125,15.363078125Q4.564228125,15.503478125,4.697098125,15.637578125Q4.829968125000001,15.771578125,4.969208125,15.898878125Q5.108438125,16.026178125,5.253698125,16.146478125Q5.398958125,16.266678125,5.549888125,16.379678124999998Q5.700828125,16.492578125,5.857068125,16.597878125Q6.013318125,16.703178125,6.174488125,16.800678124999997Q6.335668125,16.898078124999998,6.501398125,16.987478125000003Q6.667118125,17.076878125,6.836988125,17.157878125Q7.006858125,17.238978125,7.180468125,17.311478125Q7.354078125,17.383978125,7.531008125,17.447878125000003Q7.707938125,17.511778125,7.887758125,17.566778125Q8.067578125,17.621778125,8.249868124999999,17.667878125Q8.432148125000001,17.713978125,8.616448125,17.750878125Q8.800748125,17.787878125,8.986628125,17.815678124999998Q9.172508125,17.843578125,9.359518125000001,17.862078125Q9.546528125,17.880678125,9.734218125,17.889978125Q9.921898125,17.899278125000002,10.109818125,17.899278125000002ZM10.109818125,16.117278125Q10.254368125,16.117278125,10.398738125000001,16.110078125Q10.543118125,16.102978125,10.686968125,16.088678125Q10.830818125,16.074378125000003,10.973798125,16.052978125Q11.116788125,16.031578125,11.258558125,16.003078125000002Q11.400328125,15.974678125,11.540548125,15.939278125Q11.680758125,15.903778125,11.819088125,15.861478125Q11.957408125,15.819178125,12.093508125,15.769978125Q12.229608125,15.720878125,12.363158125,15.665078125Q12.496678125,15.609278125,12.627378125,15.546978125Q12.758078125,15.484578125,12.885478125,15.415878125Q13.012978125,15.347078125,13.136978125,15.272178125Q13.260978125,15.197178125,13.381178125,15.116178125Q13.501378125,15.035178125,13.617478125,14.948278125Q13.733578125,14.861478125,13.845278125,14.768878125Q13.956978125,14.676378125,14.064078125,14.578478125Q14.171278125,14.480578125,14.273478125,14.377478125Q14.375678125,14.274378125,14.472678125,14.166278125Q14.569778125,14.058278125,14.661478125,13.945478125Q14.753178125,13.832778125,14.839278125,13.715678125Q14.925378125,13.598578125,15.005678125,13.477278125Q15.086078125,13.356078125,15.160378125,13.230978125Q15.234678125,13.105878125,15.302778125,12.977278125Q15.370978125,12.848678125,15.432778125,12.716878125Q15.494578125,12.585078125,15.549878125,12.450348125Q15.605178125,12.315628125,15.653878125,12.178328125Q15.702578125,12.041028125,15.744478125,11.901488125Q15.786478125,11.761948125,15.821578125,11.620498125Q15.856778125,11.479048125,15.884978125,11.336028125Q15.913178125,11.193008125,15.934378125,11.048768125Q15.955578125,10.904518125,15.969678125,10.759408125Q15.983878125,10.614288125,15.990978125,10.468638125Q15.998078125,10.322998125,15.998078125,10.177178125000001Q15.998078125,10.031358125,15.990978125,9.885708125Q15.983878125,9.740068125,15.969678125,9.594948125Q15.955578125,9.449828125,15.934378125,9.305578125Q15.913178125,9.161338125,15.884978125,9.018318125Q15.856778125,8.875298125,15.821578125,8.733848125Q15.786478125,8.592398124999999,15.744478125,8.452858124999999Q15.702578125,8.313318125,15.653878125,8.176018124999999Q15.605178125,8.038718124999999,15.549878125,7.903998125Q15.494578125,7.769278125,15.432778125,7.637458125Q15.370978125,7.505638125,15.302778125,7.377038125Q15.234678125,7.248438125,15.160378125,7.123358125Q15.086078125,6.998288125,15.005678125,6.877038125Q14.925378125,6.755798125,14.839278125,6.638668125Q14.753178125,6.521548125,14.661478125,6.408828124999999Q14.569778125,6.296108125,14.472678125,6.1880581249999995Q14.375678125,6.080008125,14.273478125,5.976898125Q14.171278125,5.873788125,14.064078125,5.775858125Q13.956978125,5.677938125,13.845278125,5.585428125Q13.733578125,5.492918125,13.617478125,5.4060581249999995Q13.501378125,5.319188125,13.381178125,5.238178125Q13.260978125,5.1571581250000005,13.136978125,5.082198125Q13.012978125,5.007228125,12.885478125,4.938488125Q12.758078125,4.869748125,12.627378125,4.807398125000001Q12.496678125,4.745058125,12.363158125,4.689248125000001Q12.229608125,4.633448125,12.093508125,4.584328125Q11.957408125,4.535198125,11.819088125,4.492868125Q11.680768125,4.450538125,11.540548125,4.415108125Q11.400328125,4.379678125,11.258558125,4.3512281250000004Q11.116788125,4.322778125,10.973808125,4.301388125Q10.830818125,4.279988125,10.686968125,4.265698125Q10.543118125,4.251398125,10.398738125000001,4.244248125Q10.254368125,4.237088125,10.109818125,4.237088125Q9.965268125,4.237088125,9.820888125,4.244248125Q9.676518125000001,4.251398125,9.532668125,4.265698125Q9.388808125,4.279988125,9.245828125,4.301388125Q9.102848125000001,4.322778125,8.961068125,4.3512281250000004Q8.819298125,4.379678125,8.679088125,4.415108125Q8.538868125,4.450538125,8.400548125,4.492868125Q8.262218125,4.535198125,8.126118125,4.584328125Q7.990018125,4.633448125,7.856478125,4.689248125000001Q7.722928125,4.745058125,7.592258125,4.807398125000001Q7.461588125,4.869748125,7.334108125,4.938488125Q7.206628125,5.007228125,7.082648125,5.082198125Q6.958658125,5.1571581250000005,6.838478125,5.238178125Q6.718288125,5.319188125,6.602188125,5.4060581249999995Q6.486078125,5.492918125,6.374348125,5.585428125Q6.262608125,5.677938125,6.155498124999999,5.775858125Q6.048398125,5.873788125,5.946188125,5.976898125Q5.843978125,6.080008125,5.746908125,6.1880581249999995Q5.649828125,6.296108125,5.558128125,6.408828124999999Q5.466428125,6.521548125,5.3803181250000005,6.638668125Q5.294218125,6.755798125,5.213908125,6.877038125Q5.133598125,6.998288125,5.059288125,7.123358125Q4.984978125,7.248438125,4.916838125,7.377038125Q4.848698125,7.505638125,4.7868981250000004,7.637458125Q4.725088125,7.769278125,4.669778125000001,7.903998125Q4.6144581250000005,8.038718124999999,4.565758125,8.176018124999999Q4.517068125,8.313318125,4.475108125,8.452858124999999Q4.433148125,8.592398124999999,4.398018125,8.733848125Q4.362898125,8.875298125,4.334698125,9.018318125Q4.306498125,9.161338125,4.285288125,9.305578125Q4.264078125,9.449828125,4.249908125,9.594948125Q4.235738125,9.740068125,4.228648125,9.885708125Q4.221558125,10.031358125,4.221558125,10.177178125000001Q4.221558125,10.322998125,4.228648125,10.468638125Q4.235738125,10.614288125,4.249908125,10.759408125Q4.264078125,10.904518125,4.285288125,11.048768125Q4.306498125,11.193008125,4.334698125,11.336028125Q4.362898125,11.479048125,4.398018125,11.620498125Q4.433148125,11.761948125,4.475108125,11.901488125Q4.517068125,12.041028125,4.565758125,12.178328125Q4.6144581250000005,12.315628125,4.669778125000001,12.450348125Q4.725088125,12.585078125,4.7868981250000004,12.716878125Q4.848698125,12.848678125,4.916838125,12.977278125Q4.984978125,13.105878125,5.059288125,13.230978125Q5.133598125,13.356078125,5.213908125,13.477278125Q5.294218125,13.598578125,5.3803181250000005,13.715678125Q5.466428125,13.832778125,5.558128125,13.945478125Q5.649828125,14.058278125,5.746908125,14.166278125Q5.843978125,14.274378125,5.946188125,14.377478125Q6.048398125,14.480578125,6.155508125,14.578478125Q6.262608125,14.676378125,6.374348125,14.768878125Q6.486078125,14.861378125,6.602188125,14.948278125Q6.718288125,15.035178125,6.838478125,15.116178125Q6.958658125,15.197178125,7.082648125,15.272178125Q7.206628125,15.347078125,7.334108125,15.415878125Q7.461588125,15.484578125,7.592258125,15.546978125Q7.722928125,15.609278125,7.856478125,15.665078125Q7.990018125,15.720878125,8.126118125,15.769978125Q8.262218125,15.819178125,8.400548125,15.861478125Q8.538868125,15.903778125,8.679088125,15.939278125Q8.819298125,15.974678125,8.961068125,16.003078125000002Q9.102848125000001,16.031578125,9.245828125,16.052978125Q9.388808125,16.074378125000003,9.532668125,16.088678125Q9.676518125000001,16.102978125,9.820888125,16.110078125Q9.965268125,16.117278125,10.109818125,16.117278125Z" fill-rule="evenodd" fill="#01BB74" fill-opacity="1"/></g><g transform="matrix(0.7197269201278687,0.6942572593688965,-0.6879302263259888,0.7257767915725708,13.618865173876202,-6.550960019033937)"><rect x="14.863548278808594" y="13.74123764038086" width="6.504374027252197" height="1.7746162414550781" rx="0.8873081207275391" fill="#01BB74" fill-opacity="1"/></g></g></g></g></svg>