<svg xmlns="http://www.w3.org/2000/svg" xmlns:xlink="http://www.w3.org/1999/xlink" fill="none" version="1.1" width="34.2164306640625" height="34.216461181640625" viewBox="0 0 34.2164306640625 34.216461181640625"><defs><mask id="master_svg0_2775_02928" style="mask-type:alpha" maskUnits="userSpaceOnUse"><g><ellipse cx="17.108230590820312" cy="17.108230590820312" rx="17.108230590820312" ry="17.108230590820312" fill="#FFFFFF" fill-opacity="1"/></g></mask></defs><g><g><g><g mask="url(#master_svg0_2775_02928)"><g><ellipse cx="17.108230590820312" cy="17.108230590820312" rx="17.108230590820312" ry="17.108230590820312" fill="#D8D8D8" fill-opacity="1"/></g></g><g><g><path d="M9.942056611633301,21.9881115625L9.942056611633301,23.1129115625L7.697816611633301,23.1129115625L7.697816611633301,23.6223415625L9.942056611633301,23.6223415625L9.942056611633301,24.8133015625L7.209043611633301,24.8133015625L7.209043611633301,25.3227315625L9.646036611633301,25.3227315625C9.0264566116333,26.211751562499998,7.980066611633301,27.0732415625,7.016287611633301,27.5004815625C7.1333186116333005,27.6038515625,7.3054226116333005,27.8037115625,7.394916611633301,27.9346215625C8.303626611633302,27.4659615625,9.2742866116333,26.6458815625,9.942056611633301,25.7293215625L9.942056611633301,28.3205615625L10.4858966116333,28.3205615625L10.4858966116333,25.7017815625C11.1605466116333,26.625231562499998,12.138096611633301,27.4798315625,13.0536866116333,27.9415015625C13.1431866116333,27.8037115625,13.3152866116333,27.596971562500002,13.4323166116333,27.4936015625C12.4685366116333,27.0732415625,11.4152666116333,26.211751562499998,10.781916611633301,25.3227315625L13.267096611633301,25.3227315625L13.267096611633301,24.8133015625L10.4858966116333,24.8133015625L10.4858966116333,23.6223415625L12.7989766116333,23.6223415625L12.7989766116333,23.1129115625L10.4858966116333,23.1129115625L10.4858966116333,21.9881115625L9.942056611633301,21.9881115625ZM14.313486611633301,22.4364415625C14.7609566116333,22.6502815625,15.332346611633302,22.9814715625,15.6214766116333,23.2091815625L15.9174966116333,22.7814015625C15.6214766116333,22.5675615625,15.0432066116333,22.2571315625,14.602626611633301,22.0639415625L14.313486611633301,22.4364415625ZM13.9555166116333,24.3451815625C14.389216611633302,24.5517015625,14.9537166116333,24.8752615625,15.229086611633301,25.0955515625L15.518216611633301,24.6618515625C15.229086611633301,24.4484415625,14.6576966116333,24.1455415625,14.237766611633301,23.9596615625L13.9555166116333,24.3451815625ZM14.155156611633302,27.890511562500002L14.5888566116333,28.2425815625C15.0019066116333,27.601381562500002,15.476916611633301,26.7339815625,15.841776611633302,26.0111415625L15.470026611633301,25.6669315625C15.0707466116333,26.4517315625,14.526896611633301,27.3604315625,14.155156611633302,27.890511562500002ZM17.438856611633298,22.1260015625C17.672956611633303,22.4847315625,17.9138566116333,22.9677015625,18.010256611633302,23.271251562499998L18.512856611633303,23.0711815625C18.4095566116333,22.7676315625,18.1479566116333,22.3054215625,17.9070566116333,21.9534715625L17.438856611633298,22.1260015625ZM15.9656866116333,23.2987815625L15.9656866116333,23.7875615625L17.7762566116333,23.7875615625L17.7762566116333,25.3433815625L16.227286611633303,25.3433815625L16.227286611633303,25.8321515625L17.7762566116333,25.8321515625L17.7762566116333,27.6082615625L15.7453966116333,27.6082615625L15.7453966116333,28.1039215625L20.288956611633303,28.1039215625L20.288956611633303,27.6082615625L18.313156611633303,27.6082615625L18.313156611633303,25.8321515625L19.875856611633303,25.8321515625L19.875856611633303,25.3433815625L18.313156611633303,25.3433815625L18.313156611633303,23.7875615625L20.1237566116333,23.7875615625L20.1237566116333,23.2987815625L15.9656866116333,23.2987815625ZM24.2955566116333,22.4313815625L24.2955566116333,24.5723515625L24.2955566116333,24.716921562499998L23.5795566116333,24.716921562499998L23.5795566116333,22.4313815625L21.610656611633303,22.4313815625L21.610656611633303,24.5585815625L21.610656611633303,24.716921562499998L20.839656611633302,24.716921562499998L20.839656611633302,25.2125815625L21.596956611633303,25.2125815625C21.555656611633303,26.1419415625,21.4041566116333,27.1952215625,20.8258566116333,27.9937815625C20.9360566116333,28.0626215625,21.1287566116333,28.2484915625,21.2045566116333,28.3597115625C21.8378566116333,27.4912315625,22.0375566116333,26.2520915625,22.0925566116333,25.2125815625L23.0770566116333,25.2125815625L23.0770566116333,27.6633415625C23.0770566116333,27.7666015625,23.0425566116333,27.794141562500002,22.946256611633302,27.8010215625C22.8498566116333,27.8079015625,22.533156611633302,27.8079015625,22.1820566116333,27.794141562500002C22.2509566116333,27.924941562500003,22.3335566116333,28.138341562500003,22.3541566116333,28.2622615625C22.8360566116333,28.2622615625,23.1389566116333,28.2553815625,23.3248566116333,28.1727715625C23.5107566116333,28.090151562499997,23.5795566116333,27.9455915625,23.5795566116333,27.6702215625L23.5795566116333,25.2125815625L24.281756611633302,25.2125815625C24.2473566116333,26.1281715625,24.1096566116333,27.1814515625,23.600256611633302,27.9800115625C23.7034566116333,28.041971562500002,23.9099566116333,28.2347215625,23.985756611633303,28.3318515625C24.5639566116333,27.4705815625,24.7429566116333,26.2383215625,24.7842566116333,25.2125815625L25.8995566116333,25.2125815625L25.8995566116333,27.6839915625C25.8995566116333,27.7872515625,25.8650566116333,27.8216715625,25.7549566116333,27.8285615625C25.6654566116333,27.8354415625,25.3281566116333,27.8354415625,24.9701566116333,27.8285615625C25.0458566116333,27.9593615625,25.1147566116333,28.1796515625,25.1422566116333,28.3104515625C25.6448566116333,28.3104515625,25.9545566116333,28.3035615625,26.147356611633302,28.220951562499998C26.3400566116333,28.138341562500003,26.4089566116333,27.9800115625,26.4089566116333,27.6908715625L26.4089566116333,25.2125815625L27.1455566116333,25.2125815625L27.1455566116333,24.716921562499998L26.4089566116333,24.716921562499998L26.4089566116333,22.4313815625L24.2955566116333,22.4313815625ZM22.106356611633302,22.9201615625L23.0770566116333,22.9201615625L23.0770566116333,24.716921562499998L22.106356611633302,24.716921562499998L22.106356611633302,24.5585815625L22.106356611633302,22.9201615625ZM24.7980566116333,24.716921562499998L24.7980566116333,24.5723515625L24.7980566116333,22.9201615625L25.8995566116333,22.9201615625L25.8995566116333,24.716921562499998L24.7980566116333,24.716921562499998Z" fill="#666666" fill-opacity="1"/></g></g></g></g><g><g><path d="M17.1084581640625,5.113037109375C13.263958164062501,5.113037109375,10.1461181640625,8.227497109375,10.1461181640625,12.070307109375001C10.1461181640625,15.913137109375,13.263958164062501,19.027537109375,17.1084581640625,19.027537109375C20.952918164062503,19.027537109375,24.0708181640625,15.913137109375,24.0708181640625,12.070307109375001C24.0708181640625,8.227497109375,20.952918164062503,5.113037109375,17.1084581640625,5.113037109375ZM17.1084581640625,17.868337109375C13.9094981640625,17.868337109375,11.3070681640625,15.267537109375,11.3070681640625,12.070307109375001C11.3070681640625,8.873037109375,13.9094981640625,6.272297109375,17.1084581640625,6.272297109375C20.3074181640625,6.272297109375,22.9098181640625,8.873037109375,22.9098181640625,12.070307109375001C22.9098181640625,15.267537109375,20.3074181640625,17.868337109375,17.1084581640625,17.868337109375ZM17.1084581640625,8.165397109375C16.7485181640625,8.165397109375,16.4561581640625,8.457747109375,16.4561581640625,8.816007109375L16.4561581640625,13.266747109375C16.4561581640625,13.625007109375,16.7502081640625,13.919467109375,17.1084581640625,13.919467109375C17.4684081640625,13.919467109375,17.7607581640625,13.625007109375,17.7607581640625,13.266747109375L17.7607581640625,8.816007109375C17.7607581640625,8.457747109375,17.4667181640625,8.165397109375,17.1084581640625,8.165397109375Z" fill="#666666" fill-opacity="1"/></g><g><ellipse cx="17.108459413051605" cy="15.057322442531586" rx="0.6477851271629333" ry="0.6477851271629333" fill="#666666" fill-opacity="1"/></g></g></g></svg>