<svg xmlns="http://www.w3.org/2000/svg" xmlns:xlink="http://www.w3.org/1999/xlink" fill="none" version="1.1" width="44.3134765625" height="19.4267578125" viewBox="0 0 44.3134765625 19.4267578125"><g><g><g><path d="M1.494873046875 6.7138671875C1.4948730468750004 3.400158688515239 4.18116454789024 0.7138671875 7.494873046875 0.7138671875L42.818603515625 0.7138671875C42.818603515625 0.7138671875 42.818603515625 0.7138671875 42.818603515625 0.7138671875L42.818603515625 12.330911636352539C42.818603515625 15.644620135337298 40.13231201460976 18.33091163635254 36.818603515625 18.33091163635254L1.494873046875 18.33091163635254C1.494873046875 18.33091163635254 1.494873046875 18.33091163635254 1.494873046875 18.33091163635254Z" fill="#FFF7CB" fill-opacity="1"/></g><g><path d="M8.076494140625,5.87337890625L8.076494140625,6.80337890625L14.466494140624999,6.80337890625L14.466494140624999,9.22337890625L9.516494140625,9.22337890625L9.516494140625,7.70337890625L8.546494140625,7.70337890625L8.546494140625,12.57337890625C8.546494140625,13.94337890625,9.086494140625,14.27337890625,10.856494140625,14.27337890625C11.256494140625,14.27337890625,13.986494140625,14.27337890625,14.426494140625,14.27337890625C16.156494140625,14.27337890625,16.536494140625003,13.72337890625,16.746494140625,11.86337890625C16.466494140625002,11.80337890625,16.036494140625003,11.64337890625,15.786494140625,11.48337890625C15.646494140625,13.02337890625,15.476494140625,13.33337890625,14.406494140625,13.33337890625C13.776494140625001,13.33337890625,11.346494140625001,13.33337890625,10.826494140625,13.33337890625C9.726494140625,13.33337890625,9.516494140625,13.21337890625,9.516494140625,12.58337890625L9.516494140625,10.15337890625L14.466494140624999,10.15337890625L14.466494140624999,10.64337890625L15.456494140625,10.64337890625L15.456494140625,5.87337890625L8.076494140625,5.87337890625ZM19.466494140625002,8.19337890625L19.466494140625002,9.06337890625L24.796494140625,9.06337890625L24.796494140625,8.19337890625L19.466494140625002,8.19337890625ZM17.696494140625,10.04337890625L17.696494140625,10.93337890625L20.296494140625,10.93337890625C20.186494140625,12.57337890625,19.816494140625,13.35337890625,17.556494140625,13.76337890625C17.736494140625,13.95337890625,17.976494140625,14.32337890625,18.046494140625,14.56507890625C20.626494140625,14.03337890625,21.126494140625,12.95337890625,21.266494140625,10.93337890625L22.846494140624998,10.93337890625L22.846494140624998,13.19337890625C22.846494140624998,14.12337890625,23.106494140625,14.40337890625,24.126494140625,14.40337890625C24.336494140625,14.40337890625,25.336494140625,14.40337890625,25.546494140625,14.40337890625C26.406494140625,14.40337890625,26.666494140625,14.04337890625,26.766494140625,12.62337890625C26.516494140625,12.56337890625,26.116494140625,12.41337890625,25.906494140625,12.25337890625C25.876494140625,13.36337890625,25.816494140625,13.53337890625,25.466494140625,13.53337890625C25.236494140625,13.53337890625,24.426494140625,13.53337890625,24.246494140625,13.53337890625C23.866494140625,13.53337890625,23.806494140625,13.49337890625,23.806494140625,13.18337890625L23.806494140625,10.93337890625L26.606494140625,10.93337890625L26.606494140625,10.04337890625L17.696494140625,10.04337890625ZM21.286494140625003,5.45025890625C21.446494140625,5.72118890625,21.596494140624998,6.06243890625,21.716494140625002,6.36337890625L17.926494140625,6.36337890625L17.926494140625,8.71337890625L18.866494140625,8.71337890625L18.866494140625,7.27337890625L25.376494140625,7.27337890625L25.376494140625,8.71337890625L26.366494140625,8.71337890625L26.366494140625,6.36337890625L22.846494140624998,6.36337890625C22.706494140625,5.99212890625,22.466494140625002,5.53056890625,22.256494140625,5.16931890625L21.286494140625003,5.45025890625ZM28.926494140625,11.80337890625L28.926494140625,14.55587890625L29.856494140625,14.55587890625L29.856494140625,14.23337890625L34.486494140625,14.23337890625L34.486494140625,14.52557890625L35.456494140625,14.52557890625L35.456494140625,11.80337890625L28.926494140625,11.80337890625ZM29.856494140625,13.48337890625L29.856494140625,12.54337890625L34.486494140625,12.54337890625L34.486494140625,13.48337890625L29.856494140625,13.48337890625ZM33.796494140625,5.24962890625C33.666494140625005,5.57071890625,33.426494140624996,6.02228890625,33.236494140625,6.34337890625L30.546494140625,6.34337890625L30.966494140625,6.21306890625C30.876494140625,5.94212890625,30.646494140625,5.55071890625,30.426494140625,5.26978890625L29.566494140625,5.50056890625C29.736494140625,5.75134890625,29.916494140625,6.08259890625,30.016494140625,6.34337890625L28.236494140625,6.34337890625L28.236494140625,7.04337890625L31.646494140625,7.04337890625L31.646494140625,7.62337890625L28.866494140625,7.62337890625L28.866494140625,8.31337890625L31.646494140625,8.31337890625L31.646494140625,8.89337890625L27.966494140625,8.89337890625L27.966494140625,9.60337890625L29.766494140625,9.60337890625L29.036494140625,9.77337890625C29.186494140625,10.00337890625,29.356494140625,10.29337890625,29.456494140625,10.54337890625L27.646494140625,10.54337890625L27.646494140625,11.28337890625L36.686494140625,11.28337890625L36.686494140625,10.54337890625L34.816494140625,10.54337890625L35.246494140625,9.76337890625L34.336494140625,9.60337890625L36.396494140624995,9.60337890625L36.396494140624995,8.89337890625L32.616494140625,8.89337890625L32.616494140625,8.31337890625L35.456494140625,8.31337890625L35.456494140625,7.62337890625L32.616494140625,7.62337890625L32.616494140625,7.04337890625L36.096494140625,7.04337890625L36.096494140625,6.34337890625L34.216494140625,6.34337890625C34.386494140625004,6.08259890625,34.586494140625,5.77150890625,34.776494140625005,5.43025890625L33.796494140625,5.24962890625ZM31.646494140625,9.60337890625L31.646494140625,10.54337890625L30.466494140625,10.54337890625C30.366494140625,10.27337890625,30.146494140625,9.88337890625,29.916494140625,9.60337890625L31.646494140625,9.60337890625ZM32.616494140625,9.60337890625L34.276494140625005,9.60337890625C34.176494140624996,9.88337890625,33.996494140625,10.25337890625,33.836494140625,10.54337890625L32.616494140625,10.54337890625L32.616494140625,9.60337890625Z" fill="#FFB540" fill-opacity="1"/></g></g></g></svg>