<svg xmlns="http://www.w3.org/2000/svg" xmlns:xlink="http://www.w3.org/1999/xlink" fill="none" version="1.1" width="34.2164306640625" height="34.216461181640625" viewBox="0 0 34.2164306640625 34.216461181640625"><defs><mask id="master_svg0_2486_03146" style="mask-type:alpha" maskUnits="userSpaceOnUse"><g><ellipse cx="17.108230590820312" cy="17.108230590820312" rx="17.108230590820312" ry="17.108230590820312" fill="#FFFFFF" fill-opacity="1"/></g></mask></defs><g><g><g mask="url(#master_svg0_2486_03146)"><g><ellipse cx="17.108230590820312" cy="17.108230590820312" rx="17.108230590820312" ry="17.108230590820312" fill="#D8D8D8" fill-opacity="1"/></g></g><g><g><g><path d="M24.69672578125,16.7754359375Q24.72142578125,16.8182359375,24.74332578125,16.8625359375Q24.76512578125,16.9068359375,24.78402578125,16.952535937500002Q24.80302578125,16.998135937500003,24.81882578125,17.0449359375Q24.83472578125,17.091735937499998,24.84752578125,17.1394359375Q24.86032578125,17.1872359375,24.86992578125,17.2356359375Q24.87962578125,17.2841359375,24.88602578125,17.3331359375Q24.89252578125,17.3821359375,24.89572578125,17.431435937499998Q24.89892578125,17.4807359375,24.89892578125,17.5301359375Q24.89892578125,17.579535937499998,24.89572578125,17.6288359375Q24.89252578125,17.6782359375,24.88602578125,17.727235937499998Q24.87962578125,17.7761359375,24.86992578125,17.8246359375Q24.86032578125,17.873135937500003,24.84752578125,17.9208359375Q24.83472578125,17.9685359375,24.81882578125,18.015335937499998Q24.80302578125,18.062135937500003,24.78402578125,18.1078359375Q24.76512578125,18.1534359375,24.74332578125,18.1977359375Q24.72142578125,18.242135937500002,24.69672578125,18.284935937500002Q24.67202578125,18.3277359375,24.64462578125,18.3687359375Q24.61712578125,18.4098359375,24.58702578125,18.4490359375Q24.55692578125,18.4882359375,24.52442578125,18.5254359375Q24.49182578125,18.5625359375,24.45682578125,18.5975359375Q24.42192578125,18.6324359375,24.38472578125,18.6650359375Q24.34762578125,18.6976359375,24.30842578125,18.7277359375Q24.26922578125,18.757835937499998,24.22812578125,18.785235937499998Q24.18702578125,18.8127359375,24.14422578125,18.8374359375Q24.10142578125,18.8621359375,24.05712578125,18.8839359375Q24.01282578125,18.9058359375,23.96712578125,18.9247359375Q23.92152578125,18.943635937499998,23.87472578125,18.9595359375Q23.82792578125,18.975435937500002,23.78022578125,18.9882359375Q23.73242578125,19.0010359375,23.68402578125,19.0106359375Q23.63552578125,19.0202359375,23.58652578125,19.0267359375Q23.53752578125,19.0331359375,23.48822578125,19.036435937500002Q23.43892578125,19.0396359375,23.38952578125,19.0396359375L10.82707578125,19.0396359375Q10.77766578125,19.0396359375,10.72835578125,19.036435937500002Q10.67904578125,19.0331359375,10.63005578125,19.0267359375Q10.58106578125,19.0202359375,10.53259578125,19.0106359375Q10.48412578125,19.0010359375,10.436395781249999,18.9882359375Q10.38866578125,18.975435937500002,10.34187578125,18.9595359375Q10.29508578125,18.943635937499998,10.24942578125,18.9247359375Q10.20377578125,18.9058359375,10.15945578125,18.8839359375Q10.11513578125,18.8621359375,10.07234578125,18.8374359375Q10.02954578125,18.8127359375,9.98846578125,18.785235937499998Q9.947375781249999,18.757835937499998,9.90816578125,18.7277359375Q9.868965781250001,18.6976359375,9.83181578125,18.6650359375Q9.79466578125,18.6324359375,9.75972578125,18.5975359375Q9.724775781249999,18.5625359375,9.69219578125,18.5254359375Q9.65961578125,18.4882359375,9.62953578125,18.4490359375Q9.59945578125,18.4098359375,9.57199578125,18.3687359375Q9.544545781250001,18.3277359375,9.51983578125,18.284935937500002Q9.49512578125,18.242135937500002,9.473275781249999,18.1977359375Q9.45141578125,18.1534359375,9.43250578125,18.1078359375Q9.41359578125,18.062135937500003,9.39771578125,18.015335937499998Q9.38182578125,17.9685359375,9.36903578125,17.9208359375Q9.35624578125,17.873135937500003,9.34660578125,17.8246359375Q9.33696578125,17.7761359375,9.33051578125,17.727235937499998Q9.324065781249999,17.6782359375,9.32083578125,17.6288359375Q9.31760578125,17.579535937499998,9.31760578125,17.5301359375Q9.31760578125,17.4807359375,9.32083578125,17.431435937499998Q9.324065781249999,17.3821359375,9.33051578125,17.3331359375Q9.33696578125,17.2841359375,9.34660578125,17.2356359375Q9.35624578125,17.1872359375,9.36903578125,17.1394359375Q9.38182578125,17.091735937499998,9.39771578125,17.0449359375Q9.41359578125,16.998135937500003,9.43250578125,16.952535937500002Q9.45141578125,16.9068359375,9.473275781249999,16.8625359375Q9.49512578125,16.8182359375,9.51983578125,16.7754359375L15.80104578125,5.8960459375Q15.82575578125,5.8532559375,15.85320578125,5.8121659375Q15.88066578125,5.7710759375,15.91074578125,5.7318759375Q15.94082578125,5.6926659375,15.97340578125,5.655515937500001Q16.00598578125,5.6183659375,16.04093578125,5.5834259374999995Q16.075875781249998,5.5484859375,16.113025781250002,5.5159059374999995Q16.15017578125,5.4833159375000005,16.18938578125,5.4532359375Q16.22858578125,5.4231559375,16.26967578125,5.3957059375Q16.310755781250002,5.3682459375,16.35355578125,5.3435359375Q16.396345781249998,5.3188359375,16.44066578125,5.2969759375Q16.48498578125,5.2751259375,16.530635781249998,5.2562159375Q16.57629578125,5.2373059375,16.623085781249998,5.2214159375Q16.66987578125,5.2055359375000005,16.71760578125,5.1927459375Q16.765345781249998,5.1799559375,16.81380578125,5.1703159375Q16.86222578125,5.1606759375,16.91122578125,5.1542259375Q16.96022578125,5.1477759375000005,17.009525781249998,5.1445459375Q17.05882578125,5.1413059375,17.108325781250002,5.1413059375Q17.15772578125,5.1413059375,17.20702578125,5.1445459375Q17.25632578125,5.1477759375000005,17.305325781249998,5.1542259375Q17.354325781249997,5.1606759375,17.40272578125,5.1703159375Q17.451225781250002,5.1799559375,17.49892578125,5.1927459375Q17.54672578125,5.2055359375000005,17.59352578125,5.2214159375Q17.64032578125,5.2373059375,17.68592578125,5.2562159375Q17.731625781250003,5.2751259375,17.775925781250002,5.2969759375Q17.820225781250002,5.3188359375,17.863025781250002,5.3435359375Q17.90582578125,5.3682459375,17.946925781250002,5.3957059375Q17.988025781250002,5.4231559375,18.02722578125,5.4532359375Q18.06642578125,5.4833159375000005,18.10352578125,5.5159059374999995Q18.140725781249998,5.5484859375,18.175625781249998,5.5834259374999995Q18.210625781250002,5.6183659375,18.24312578125,5.655515937500001Q18.27572578125,5.6926659375,18.30582578125,5.7318759375Q18.335925781249998,5.7710759375,18.363325781249998,5.8121659375Q18.39082578125,5.8532559375,18.41552578125,5.8960459375L24.69672578125,16.7754359375Z" fill="#FFFDF9" fill-opacity="1"/></g><g><path d="M17.10855859375,15.7432084375C16.58129159375,15.7432084375,16.15380859375,16.170568437500002,16.15380859375,16.6979584375C16.15380859375,17.2252284375,16.58129159375,17.6527184375,17.10855859375,17.6527184375C17.63582859375,17.6527184375,18.06330859375,17.2252284375,18.06330859375,16.6979584375C18.06330859375,16.170568437500002,17.63582859375,15.7432084375,17.10855859375,15.7432084375ZM17.08110259375,14.9967984375C17.53527859375,14.9967984375,17.90339859375,14.6285584375,17.90339859375,14.1745084375L17.90339859375,10.3369464375C17.90339859375,9.8827694375,17.53527859375,9.5146484375,17.08110259375,9.5146484375C16.62692559375,9.5146484375,16.25880459375,9.8828964375,16.25880459375,10.3369464375L16.25880459375,14.1745084375C16.25880459375,14.6286784375,16.62692559375,14.9967984375,17.08110259375,14.9967984375Z" fill="#D8D8D8" fill-opacity="1"/></g></g><g><path d="M7.5962225625,22.4107315625L7.5962225625,22.9270415625L12.098456562500001,22.9270415625L12.098456562500001,24.7375715625L8.4842765625,24.7375715625L8.4842765625,23.6016915625L7.9610865625,23.6016915625L7.9610865625,27.0644215625C7.9610865625,27.9180515625,8.3121765625,28.124581562499998,9.4274065625,28.124581562499998C9.6890065625,28.124581562499998,11.7404865625,28.124581562499998,12.0158465625,28.124581562499998C13.1517365625,28.124581562499998,13.3789065625,27.7459515625,13.5097065625,26.4792615625C13.3582565625,26.4517315625,13.1241965625,26.3622315625,12.9865165625,26.2658515625C12.8901365625,27.374201562499998,12.7731065625,27.6151515625,12.0227365625,27.6151515625C11.5546065625,27.6151515625,9.7647265625,27.6151515625,9.3998665625,27.6151515625C8.6426165625,27.6151515625,8.4842765625,27.5118915625,8.4842765625,27.0713015625L8.4842765625,25.2470015625L12.098456562500001,25.2470015625L12.098456562500001,25.5912115625L12.635426562500001,25.5912115625L12.635426562500001,22.4107315625L7.5962225625,22.4107315625ZM14.4872565625,22.4364415625C14.9347265625,22.6502815625,15.5061165625,22.9814715625,15.7952465625,23.2091815625L16.0912665625,22.7814015625C15.7952465625,22.5675615625,15.2169765625,22.2571315625,14.7763965625,22.0639415625L14.4872565625,22.4364415625ZM14.129286562499999,24.3451815625C14.5629865625,24.5517015625,15.1274865625,24.8752615625,15.4028565625,25.0955515625L15.6919865625,24.6618515625C15.4028565625,24.4484415625,14.8314665625,24.1455415625,14.4115365625,23.9596615625L14.129286562499999,24.3451815625ZM14.328926562500001,27.890511562500002L14.7626265625,28.2425815625C15.1756765625,27.601381562500002,15.6506865625,26.7339815625,16.0155465625,26.0111415625L15.6437965625,25.6669315625C15.2445165625,26.4517315625,14.7006665625,27.3604315625,14.328926562500001,27.890511562500002ZM17.612626562499997,22.1260015625C17.846726562500002,22.4847315625,18.0876265625,22.9677015625,18.1840265625,23.271251562499998L18.686626562500003,23.0711815625C18.583326562499998,22.7676315625,18.3217265625,22.3054215625,18.0808265625,21.9534715625L17.612626562499997,22.1260015625ZM16.1394565625,23.2987815625L16.1394565625,23.7875615625L17.9500265625,23.7875615625L17.9500265625,25.3433815625L16.401056562500003,25.3433815625L16.401056562500003,25.8321515625L17.9500265625,25.8321515625L17.9500265625,27.6082615625L15.9191665625,27.6082615625L15.9191665625,28.1039215625L20.462726562500002,28.1039215625L20.462726562500002,27.6082615625L18.486926562500003,27.6082615625L18.486926562500003,25.8321515625L20.049626562500002,25.8321515625L20.049626562500002,25.3433815625L18.486926562500003,25.3433815625L18.486926562500003,23.7875615625L20.2975265625,23.7875615625L20.2975265625,23.2987815625L16.1394565625,23.2987815625ZM23.7395265625,22.4164315625C24.0080265625,22.8168915625,24.2903265625,23.3538615625,24.3935265625,23.6911815625L24.8272265625,23.4708915625C24.7102265625,23.1266815625,24.4211265625,22.6098315625,24.1457265625,22.2230315625L23.7395265625,22.4164315625ZM26.8305265625,22.1747315625C26.6584265625,22.5821915625,26.3486265625,23.1473315625,26.1146265625,23.4846615625L26.5070265625,23.6705315625C26.7479265625,23.3400915625,27.0508265625,22.8306615625,27.2849265625,22.3750215625L26.8305265625,22.1747315625ZM21.9497265625,22.0020915625C21.743126562500002,22.6373715625,21.3920265625,23.2437115625,20.9790265625,23.6567615625C21.0685265625,23.7600215625,21.199326562499998,24.0147415625,21.240626562499997,24.118001562499998C21.4609265625,23.8908215625,21.667426562499998,23.6085715625,21.8533265625,23.2987815625L23.5468265625,23.2987815625L23.5468265625,22.8100115625L22.1218265625,22.8100115625C22.2250265625,22.5890715625,22.3214265625,22.3611415625,22.3971265625,22.1333215625L21.9497265625,22.0020915625ZM21.1511265625,25.3984515625L21.1511265625,25.8734615625L22.1424265625,25.8734615625L22.1424265625,27.2383515625C22.1424265625,27.5346915625,21.9290265625,27.7276615625,21.8120265625,27.7966115625C21.8946265625,27.899981562500002,22.0185265625,28.1137115625,22.0598265625,28.2308515625C22.1631265625,28.1206015625,22.3489265625,28.0034615625,23.5055265625,27.3554915625C23.4711265625,27.2521215625,23.4229265625,27.0521515625,23.4091265625,26.914361562499998L22.6174265625,27.3279515625L22.6174265625,25.8734615625L23.5812265625,25.8734615625L23.5812265625,25.3984515625L22.6174265625,25.3984515625L22.6174265625,24.4690915625L23.4297265625,24.4690915625L23.4297265625,24.0009715625L21.454026562499998,24.0009715625L21.454026562499998,24.4690915625L22.1424265625,24.4690915625L22.1424265625,25.3984515625L21.1511265625,25.3984515625ZM24.3040265625,25.6187415625L26.6102265625,25.6187415625L26.6102265625,26.3691215625L24.3040265625,26.3691215625L24.3040265625,25.6187415625ZM24.3040265625,25.1712715625L24.3040265625,24.4346715625L26.6102265625,24.4346715625L26.6102265625,25.1712715625L24.3040265625,25.1712715625ZM25.2403265625,21.9740215625L25.2403265625,23.9527815625L23.8359265625,23.9527815625L23.8359265625,28.3179815625L24.3040265625,28.3179815625L24.3040265625,26.8097015625L26.6102265625,26.8097015625L26.6102265625,27.6633415625C26.6102265625,27.7597215625,26.5758265625,27.7872515625,26.4794265625,27.7872515625C26.3762265625,27.794141562500002,26.0251265625,27.794141562500002,25.6396265625,27.7872515625C25.7153265625,27.9111715625,25.7772265625,28.124581562499998,25.7979265625,28.2553815625C26.3211265625,28.2553815625,26.6446265625,28.2553815625,26.8305265625,28.165881562499997C27.0233265625,28.090151562499997,27.0852265625,27.9387015625,27.0852265625,27.6702215625L27.0852265625,23.9458915625L26.6102265625,23.9527815625L25.7222265625,23.9527815625L25.7222265625,21.9740215625L25.2403265625,21.9740215625Z" fill="#FFFDF9" fill-opacity="1"/></g></g></g></g></svg>