<svg xmlns="http://www.w3.org/2000/svg" xmlns:xlink="http://www.w3.org/1999/xlink" fill="none" version="1.1" width="19.23980712890625" height="19.240234375" viewBox="0 0 19.23980712890625 19.240234375"><g><g><g><ellipse cx="9.619893074035645" cy="9.619893074035645" rx="9.619893074035645" ry="9.619893074035645" fill="#FF8F1F" fill-opacity="1"/></g></g><g><g><g><path d="M5.209922265625,14.10967494140625Q3.9632822656249997,12.09992494140625,7.177992265625,7.32281494140625L12.211322265625,7.32281494140625Q15.247472265625,11.904204941406249,14.029272265625,13.940374941406251Q13.084292265625,15.51989494140625,9.579242265625,15.56780494140625Q6.143522265625,15.61476494140625,5.209922265625,14.10967494140625ZM9.118182265625,9.97820494140625L9.550182265625,10.41020494140625Q9.822172265625,10.154204941406249,10.046172265625,9.94620494140625Q10.238172265625,9.77020494140625,10.430172265625,9.60220494140625Q10.622172265625,9.43420494140625,10.702172265625,9.37020494140625Q10.846172265625,9.24220494140625,11.022172265624999,9.24220494140625Q11.198172265625,9.24220494140625,11.310172265624999,9.38620494140625Q11.518172265625001,9.62620494140625,11.150172265624999,9.94620494140625Q11.054172265624999,10.02620494140625,10.862172265625,10.22620494140625Q10.670172265625,10.426204941406251,10.478172265625,10.61820494140625Q10.254172265625,10.85820494140625,9.982172265625,11.11420494140625L9.982172265625,11.41820494140625L11.022172265624999,11.41820494140625Q11.246172265624999,11.41820494140625,11.350172265625,11.522204941406251Q11.454172265625001,11.62620494140625,11.454172265625001,11.75420494140625Q11.454172265625001,11.898204941406249,11.358172265625,12.00220494140625Q11.262172265625,12.10620494140625,11.038172265625,12.090204941406249L9.998172265625,12.10620494140625L9.982172265625,12.650204941406251L11.006172265625,12.650204941406251Q11.454172265625001,12.650204941406251,11.454172265625001,12.98620494140625Q11.470172265625,13.14620494140625,11.366172265625,13.218204941406249Q11.262172265625,13.29020494140625,11.102172265625,13.29020494140625L9.982172265625,13.29020494140625L9.982172265625,13.61020494140625Q9.982172265625,13.75420494140625,9.862172265625,13.89020494140625Q9.742172265625001,14.026204941406249,9.550172265625001,14.01020494140625Q9.358172265625,14.01020494140625,9.230172265625,13.92220494140625Q9.102172265625,13.834204941406249,9.086172265624999,13.61020494140625L9.086172265624999,13.29020494140625L7.998172265625,13.29020494140625Q7.8381722656249995,13.29020494140625,7.734172265625,13.20220494140625Q7.630172265625,13.11420494140625,7.646172265625,12.98620494140625Q7.646172265625,12.84220494140625,7.750172265625,12.75420494140625Q7.8541722656249995,12.66620494140625,7.998172265625,12.66620494140625L9.086172265624999,12.66620494140625L9.086172265624999,12.10620494140625L7.998172265625,12.10620494140625Q7.8381722656249995,12.10620494140625,7.742172265624999,12.01020494140625Q7.646172265625,11.91420494140625,7.646172265625,11.78620494140625Q7.646172265625,11.65820494140625,7.750172265625,11.54620494140625Q7.8541722656249995,11.43420494140625,7.998172265625,11.43420494140625L9.086172265624999,11.43420494140625L9.102172265625,11.09820494140625Q8.814172265625,10.81020494140625,8.574172265625,10.554204941406251Q8.366182265625,10.330204941406251,8.190172265625,10.13820494140625L7.950172265625,9.91420494140625Q7.8701722656249995,9.81820494140625,7.806172265624999,9.65020494140625Q7.742182265625,9.48220494140625,7.870182265625,9.30620494140625Q8.014182265625,9.14620494140625,8.222182265625,9.218204941406249Q8.430182265625,9.29020494140625,8.558182265625,9.40220494140625Q8.622182265625,9.48220494140625,8.782182265625,9.64220494140625L9.118182265625,9.97820494140625Z" fill-rule="evenodd" fill="#FFFFFF" fill-opacity="1"/></g></g><g><g><g><rect x="7.655819654464722" y="5.866100549697876" width="3.897595167160034" height="0.7349563837051392" rx="0" fill="#FFFFFF" fill-opacity="1"/></g><g transform="matrix(0.8221113085746765,0.5693268179893494,-0.8270860314369202,0.5620754361152649,4.774406886402819,-1.8143868629390347)"><path d="M9.28259919658661,5.398563512630463C9.28259919658661,5.969383512630463,8.63005919658661,5.609313512630463,7.777949196586609,5.609313512630463C6.9258411965866085,5.609313512630463,6.544439196586609,5.665783512630463,6.544439196586609,5.094963512630462C6.544439196586609,4.524139512630462,6.887612196586609,4.364993512630463,7.739719196586609,4.364993512630463C8.591829196586609,4.364993512630463,9.28259919658661,4.8277375126304625,9.28259919658661,5.398563512630463Z" fill="#FFFFFF" fill-opacity="1"/></g><g transform="matrix(-0.8221113085746765,0.5693268179893494,0.8270860314369202,0.5620754361152649,19.52135116442313,-5.316027940416113)"><path d="M15.433086738739014,5.3985553467941285C15.433086738739014,5.969375346794129,14.780546738739014,5.6093053467941285,13.928436738739014,5.6093053467941285C13.076328738739013,5.6093053467941285,12.694926738739014,5.6657753467941285,12.694926738739014,5.094955346794128C12.694926738739014,4.524131346794128,13.038099738739014,4.364985346794128,13.890206738739014,4.364985346794128C14.742316738739014,4.364985346794128,15.433086738739014,4.827729346794128,15.433086738739014,5.3985553467941285Z" fill="#FFFFFF" fill-opacity="1"/></g><g transform="matrix(0.43992945551872253,0.8980323076248169,-0.9744017720222473,0.22481337189674377,8.508009818153049,-5.060995887719713)"><ellipse cx="10.17097282409668" cy="4.888264179229736" rx="1.3665821552276611" ry="1.2173657417297363" fill="#FFFFFF" fill-opacity="1"/></g><g transform="matrix(-0.43992942571640015,0.8980323076248169,0.9744018316268921,0.22481337189674377,11.434289793575624,-6.514872261847488)"><ellipse cx="11.797330498695374" cy="4.877766170538962" rx="1.3664804697036743" ry="1.1981773376464844" fill="#FFFFFF" fill-opacity="1"/></g><g transform="matrix(0.0008882076945155859,0.9999987483024597,-0.9999987483024597,0.0006736055947840214,14.492465633780432,-6.626158779954041)"><ellipse cx="11.857372164726257" cy="4.904092460870743" rx="1.2946866750717163" ry="0.9649255275726318" fill="#FFFFFF" fill-opacity="1"/></g></g></g></g></g></svg>