<svg xmlns="http://www.w3.org/2000/svg" xmlns:xlink="http://www.w3.org/1999/xlink" fill="none" version="1.1" width="19.23974609375" height="19.240234375" viewBox="0 0 19.23974609375 19.240234375"><defs><clipPath id="master_svg0_528_06093"><rect x="4.477294921875" y="6.08203125" width="10.338134765625" height="8.013814926147461" rx="0"/></clipPath></defs><g><g><g><ellipse cx="9.619893074035645" cy="9.619893074035645" rx="9.619893074035645" ry="9.619893074035645" fill="#526EFF" fill-opacity="1"/></g></g><g clip-path="url(#master_svg0_528_06093)"><g><path d="M7.1392552734375005,7.79780125L8.937955273437499,6.43933725C9.4324852734375,6.07380588,10.0846952734375,5.97970825,10.6526452734375,6.19892425L13.5138152734375,7.28595125C13.6986452734375,7.35589125,13.8947452734375,7.39129125,14.0923652734375,7.39039125L14.5657052734375,7.39039125C14.7027052734375,7.39039125,14.8182052734375,7.49483125,14.8182052734375,7.63080125L14.8182052734375,11.120671250000001C14.8182052734375,11.25639125,14.7024052734375,11.371421250000001,14.5657052734375,11.371421250000001L13.9452652734375,11.371421250000001C13.8609952734375,11.371421250000001,13.7663852734375,11.40270125,13.7033052734375,11.45492125L13.5662952734375,11.56996125C13.5350152734375,11.601241250000001,13.4822752734375,11.590641250000001,13.4507452734375,11.55962125L10.115975273437499,7.5258512500000005C10.0319652734375,7.42141125,9.884875273437501,7.40047125,9.7690652734375,7.46329125L8.2438552734375,8.30965125C7.9359152734375,8.47781125,7.5682552734375,8.49702125,7.2444652734375,8.36186125C7.0724452734375,8.28580125,6.9929152734375,8.08607125,7.0655752734375,7.91258125C7.0655752734375,7.87070125,7.0971152734375,7.82882125,7.1392552734375005,7.79754125L7.1392552734375005,7.79780125ZM4.7829452734375,11.36082125L5.3193512734375,11.36082125L5.6980652734375,10.90120125C6.0346452734375,10.493791250000001,6.6447252734374995,10.44131125,7.0552352734375,10.77582125C7.2025852734375,10.90120125,7.3181352734375,11.068451249999999,7.3706152734375,11.256641250000001C7.6958552734375,11.341201250000001,7.9520452734375,11.59159125,8.0440352734375,11.91481125C8.2753952734375,11.987971250000001,8.4858252734375,12.13428125,8.601375273437501,12.35350125C8.8042752734375,12.38548125,8.991955273437501,12.48054125,9.137785273437501,12.62519125C9.4428252734375,12.94910125,9.5061552734375,13.42993125,9.274795273437501,13.81640125L9.222055273437501,13.91049125L9.222055273437501,13.920831249999999C9.4746152734375,14.08809125,9.8111952734375,14.03587125,9.9898252734375,13.78512125C10.0741052734375,13.65974125,10.1056352734375,13.513681250000001,10.0741052734375,13.36711125L10.0741052734375,13.356771250000001L10.084445273437499,13.356771250000001L10.1268352734375,13.39839125C10.3160652734375,13.58658125,10.6211052734375,13.61812125,10.8421252734375,13.471551250000001C11.018885273437501,13.346981249999999,11.1054552734375,13.129831249999999,11.062895273437501,12.91782125L11.062895273437501,12.90748125L11.0732352734375,12.90748125L11.115635273437501,12.94910125C11.3074752734375,13.13806125,11.6048052734375,13.16847125,11.8309252734375,13.02226125C12.009555273437499,12.89688125,12.1044252734375,12.677411249999999,12.062295273437499,12.46853125L12.062295273437499,12.458191249999999L12.0726352734375,12.458191249999999L12.1147652734375,12.49981125C12.2949852734375,12.67573125,12.5703552734375,12.70998125,12.7881852734375,12.58357125C13.0863652734375,12.40832125,13.1475252734375,12.002991250000001,12.9143352734375,11.74755125L12.5777552734375,11.34014125L9.8530752734375,8.04855125C9.821535273437501,8.01727125,9.7796552734375,8.006931250000001,9.7375252734375,8.02787125L8.4330852734375,8.74885125C8.0140452734375,8.98060125,7.5149552734375,9.018711249999999,7.0655752734375,8.85329125C6.8132752734375,8.76953125,6.6237852734375,8.57100125,6.529175273437501,8.33084125C6.4554952734375,8.08009125,6.4870352734375,7.80840125,6.6237852734375,7.58892125C6.6569952734375,7.52839125,6.6331452734375,7.45238125,6.5713052734375,7.42167125C6.5501152734375,7.41133125,6.529175273437501,7.41133125,6.5082352734375,7.41133125L4.7304682734375,7.41133125C4.5934582734375,7.41133125,4.4779052734375,7.51577125,4.4779052734375,7.65174125L4.4779052734375,11.131271250000001C4.5303825734375,11.25639125,4.6461942734375,11.36108125,4.7829452734375,11.36108125L4.7829452734375,11.36082125ZM6.6765252734375,11.11007125C6.4702652734375,10.99440125,6.2103652734375,11.047811249999999,6.0664452734375,11.23545125L5.6980652734375,11.684731249999999C5.5403752734375,11.88327125,5.5613152734375,12.175901249999999,5.7611452734375,12.332561250000001L5.7717452734375,12.332561250000001L5.8244752734375,12.37444125C5.9718252734375,12.489471250000001,6.1819952734375,12.49981125,6.3396852734374995,12.41631125C6.3502852734375,12.40597125,6.3608852734375,12.41631125,6.3714852734375,12.426651249999999L6.3714852734375,12.44759125C6.3390152734375,12.617001250000001,6.4038452734375,12.79036125,6.5395152734375,12.89688125L6.5816452734375,12.928161249999999C6.7289952734375,13.04320125,6.9182252734375,13.05354125,7.0867752734375,12.98038125C7.0971152734375,12.970041250000001,7.1183152734375,12.98038125,7.1183152734375,12.99072125L7.1183152734375,13.00132125C7.0971152734375,13.15823125,7.170785273437501,13.314891249999999,7.2969452734375,13.419331249999999L7.328475273437499,13.440011250000001C7.4758352734375,13.55504125,7.6653152734375,13.57598125,7.833605273437501,13.482151250000001C7.8439452734375,13.47181125,7.8651452734375,13.482151250000001,7.8651452734375,13.49249125L7.8651452734375,13.50283125C7.8860852734375,13.61786125,7.9491552734374995,13.72256125,8.0437752734375,13.795461249999999L8.0649752734375,13.80580125C8.2753952734375,13.96271125,8.5698352734375,13.93143125,8.7275252734375,13.722301250000001C8.7389252734375,13.70291125,8.753125273437501,13.685321250000001,8.7696652734375,13.670081249999999L8.8327452734375,13.55504125C8.9485552734375,13.35651125,8.9170152734375,13.11636125,8.7487252734375,12.959441250000001C8.6117152734375,12.834061250000001,8.412145273437499,12.802781249999999,8.2332552734375,12.87594125C8.2229152734375,12.87594125,8.2229152734375,12.87594125,8.2123252734375,12.865601250000001L8.2123252734375,12.85526125C8.2226652734375,12.60451125,8.0228352734375,12.38478125,7.7702752734375,12.364091250000001C7.707195273437501,12.364091250000001,7.6441152734374995,12.37444125,7.5810452734375,12.395121249999999Q7.5073652734375,12.40572125,7.528565273437501,12.34316125C7.6231752734375,12.102741250000001,7.5179652734375,11.84165125,7.2760052734375,11.73695125C7.1459852734375,11.686041249999999,7.0003352734375,11.693671250000001,6.8763452734375,11.75789125Q6.8236152734375,11.76823125,6.834215273437501,11.716011250000001C6.9709652734375,11.51748125,6.8972852734375,11.23545125,6.6765252734375,11.11007125Z" fill="#FFFFFF" fill-opacity="1"/></g></g></g></svg>