<svg xmlns="http://www.w3.org/2000/svg" xmlns:xlink="http://www.w3.org/1999/xlink" fill="none" version="1.1" width="19.23974609375" height="19.240234375" viewBox="0 0 19.23974609375 19.240234375"><g><g><g><ellipse cx="9.619893074035645" cy="9.619893074035645" rx="9.619893074035645" ry="9.619893074035645" fill="#01BA74" fill-opacity="1"/></g></g><g><g><g><path d="M5.21016640625,14.10869837890625Q3.9635264062499997,12.09894837890625,7.17823640625,7.32183837890625L12.21156640625,7.32183837890625Q15.24771640625,11.903228378906249,14.02951640625,13.939398378906251Q13.08453640625,15.51891837890625,9.57948640625,15.56682837890625Q6.14376640625,15.61378837890625,5.21016640625,14.10869837890625ZM9.11842640625,9.97722837890625L9.55042640625,10.40922837890625Q9.82241640625,10.153228378906249,10.04641640625,9.94522837890625Q10.23841640625,9.76922837890625,10.43041640625,9.60122837890625Q10.62241640625,9.43322837890625,10.70241640625,9.36922837890625Q10.84641640625,9.24122837890625,11.022416406249999,9.24122837890625Q11.19841640625,9.24122837890625,11.310416406249999,9.38522837890625Q11.518416406250001,9.62522837890625,11.150416406249999,9.94522837890625Q11.054416406249999,10.02522837890625,10.86241640625,10.22522837890625Q10.67041640625,10.425228378906251,10.47841640625,10.61722837890625Q10.25441640625,10.85722837890625,9.98241640625,11.11322837890625L9.98241640625,11.41722837890625L11.022416406249999,11.41722837890625Q11.246416406249999,11.41722837890625,11.35041640625,11.521228378906251Q11.454416406250001,11.62522837890625,11.454416406250001,11.75322837890625Q11.454416406250001,11.897228378906249,11.35841640625,12.00122837890625Q11.26241640625,12.10522837890625,11.03841640625,12.089228378906249L9.99841640625,12.10522837890625L9.98241640625,12.649228378906251L11.00641640625,12.649228378906251Q11.454416406250001,12.649228378906251,11.454416406250001,12.98522837890625Q11.47041640625,13.14522837890625,11.36641640625,13.217228378906249Q11.26241640625,13.28922837890625,11.10241640625,13.28922837890625L9.98241640625,13.28922837890625L9.98241640625,13.60922837890625Q9.98241640625,13.75322837890625,9.86241640625,13.88922837890625Q9.742416406250001,14.025228378906249,9.550416406250001,14.00922837890625Q9.35841640625,14.00922837890625,9.23041640625,13.92122837890625Q9.10241640625,13.833228378906249,9.086416406249999,13.60922837890625L9.086416406249999,13.28922837890625L7.99841640625,13.28922837890625Q7.8384164062499995,13.28922837890625,7.73441640625,13.20122837890625Q7.63041640625,13.11322837890625,7.64641640625,12.98522837890625Q7.64641640625,12.84122837890625,7.75041640625,12.75322837890625Q7.8544164062499995,12.66522837890625,7.99841640625,12.66522837890625L9.086416406249999,12.66522837890625L9.086416406249999,12.10522837890625L7.99841640625,12.10522837890625Q7.8384164062499995,12.10522837890625,7.742416406249999,12.00922837890625Q7.64641640625,11.91322837890625,7.64641640625,11.78522837890625Q7.64641640625,11.65722837890625,7.75041640625,11.54522837890625Q7.8544164062499995,11.43322837890625,7.99841640625,11.43322837890625L9.086416406249999,11.43322837890625L9.10241640625,11.09722837890625Q8.81441640625,10.80922837890625,8.57441640625,10.553228378906251Q8.36642640625,10.329228378906251,8.19041640625,10.13722837890625L7.95041640625,9.91322837890625Q7.8704164062499995,9.81722837890625,7.806416406249999,9.64922837890625Q7.74242640625,9.48122837890625,7.87042640625,9.30522837890625Q8.01442640625,9.14522837890625,8.22242640625,9.217228378906249Q8.43042640625,9.28922837890625,8.55842640625,9.40122837890625Q8.62242640625,9.48122837890625,8.78242640625,9.64122837890625L9.11842640625,9.97722837890625Z" fill-rule="evenodd" fill="#FFFFFF" fill-opacity="1"/></g></g><g><g><g><rect x="7.656063795089722" y="5.865123987197876" width="3.897595167160034" height="0.7349563837051392" rx="0" fill="#FFFFFF" fill-opacity="1"/></g><g transform="matrix(0.8221113085746765,0.5693268179893494,-0.8270860314369202,0.5620754361152649,4.7736426150565485,-1.8149535194511266)"><path d="M9.28284333721161,5.397586950130463C9.28284333721161,5.968406950130463,8.63030333721161,5.608336950130463,7.778193337211609,5.608336950130463C6.9260853372116085,5.608336950130463,6.544683337211609,5.664806950130463,6.544683337211609,5.093986950130462C6.544683337211609,4.523162950130462,6.887856337211609,4.364016950130463,7.739963337211609,4.364016950130463C8.592073337211609,4.364016950130463,9.28284333721161,4.8267609501304625,9.28284333721161,5.397586950130463Z" fill="#FFFFFF" fill-opacity="1"/></g><g transform="matrix(-0.8221113085746765,0.5693268179893494,0.8270860314369202,0.5620754361152649,19.5226037170194,-5.316594596928205)"><path d="M15.433330879364014,5.3975787842941285C15.433330879364014,5.968398784294129,14.780790879364014,5.6083287842941285,13.928680879364014,5.6083287842941285C13.076572879364013,5.6083287842941285,12.695170879364014,5.6647987842941285,12.695170879364014,5.093978784294128C12.695170879364014,4.523154784294128,13.038343879364014,4.364008784294128,13.890450879364014,4.364008784294128C14.742560879364014,4.364008784294128,15.433330879364014,4.826752784294128,15.433330879364014,5.3975787842941285Z" fill="#FFFFFF" fill-opacity="1"/></g><g transform="matrix(0.43992945551872253,0.8980323076248169,-0.9744017720222473,0.22481337189674377,8.507194989895332,-5.061972152080074)"><ellipse cx="10.17121696472168" cy="4.887287616729736" rx="1.3665821552276611" ry="1.2173657417297363" fill="#FFFFFF" fill-opacity="1"/></g><g transform="matrix(-0.43992942571640015,0.8980323076248169,0.9744018316268921,0.22481337189674377,11.435592903134273,-6.515848526207849)"><ellipse cx="11.797574639320374" cy="4.876789608038962" rx="1.3664804697036743" ry="1.1981773376464844" fill="#FFFFFF" fill-opacity="1"/></g><g transform="matrix(0.0008882076945155859,0.9999987483024597,-0.9999987483024597,0.0006736055947840214,14.491732996280211,-6.627378824955487)"><ellipse cx="11.857616305351257" cy="4.903115898370743" rx="1.2946866750717163" ry="0.9649255275726318" fill="#FFFFFF" fill-opacity="1"/></g></g></g></g></g></svg>