<svg xmlns="http://www.w3.org/2000/svg" xmlns:xlink="http://www.w3.org/1999/xlink" fill="none" version="1.1" width="19.23980712890625" height="19.240234375" viewBox="0 0 19.23980712890625 19.240234375"><defs><clipPath id="master_svg0_506_06421"><rect x="3.9360506534576416" y="3.9360506534576416" width="11.367514610290527" height="11.367514610290527" rx="0"/></clipPath></defs><g><g><ellipse cx="9.619893074035645" cy="9.619893074035645" rx="9.619893074035645" ry="9.619893074035645" fill="#F7C32E" fill-opacity="1"/></g><g clip-path="url(#master_svg0_506_06421)"><g><path d="M9.630919755020141,4.154800653457642C6.601429755020142,4.154800653457642,4.135879755020142,6.620350653457642,4.135879755020142,9.649840653457641C4.135879755020142,10.60453065345764,4.384543755020141,11.543680653457642,4.854119755020141,12.368490653457641C4.9494657550201415,12.535900653457642,4.805646755020142,12.853900653457641,4.651566755020141,13.190890653457641C4.651100755020142,13.191910653457642,4.650839755020142,13.192480653457642,4.650376755020142,13.193500653457642C4.496757755020141,13.532570653457642,4.414324755020141,13.744670653457641,4.4231527550201415,13.867360653457641C4.427570755020142,13.92875065345764,4.477110755020141,13.982720653457642,4.537560755020142,13.994310653457642C4.562334755020141,13.999060653457642,4.591956755020141,14.001460653457642,4.626547755020142,14.001460653457642C4.787164755020141,14.001460653457642,5.021836755020142,13.949510653457642,5.250049755020141,13.89966065345764C5.251229755020142,13.899400653457642,5.251879755020141,13.899260653457642,5.253059755020142,13.899000653457641C5.492279755020141,13.84584065345764,5.7192397550201415,13.796090653457641,5.883189755020141,13.796090653457641C5.9758797550201415,13.796090653457641,6.038909755020142,13.811430653457641,6.081129755020141,13.845040653457641C6.084799755020142,13.847970653457642,6.087879755020142,13.850680653457642,6.0914697550201415,13.853700653457642C7.079799755020142,14.685800653457642,8.33654975502014,15.144900653457642,9.630919755020141,15.144900653457642C12.660399755020142,15.144900653457642,15.125979755020142,12.680430653457641,15.125979755020142,9.649840653457641C15.125979755020142,6.620350653457642,12.661509755020141,4.154800780499642,9.630919755020141,4.154800653457642ZM9.630919755020141,14.397800653457642C8.51081975502014,14.397800653457642,7.422909755020141,14.000350653457641,6.569239755020142,13.278780653457641C6.390509755020142,13.127810653457642,6.1584997550201415,13.050100653457642,5.883189755020141,13.050100653457642C5.881989755020141,13.050100653457642,5.880789755020142,13.050100653457642,5.879589755020142,13.050100653457642C5.711979755020142,13.050510653457641,5.583249755020142,12.885200653457641,5.612309755020141,12.720120653457641C5.654799755020141,12.478780653457642,5.638119755020142,12.234910653457641,5.503529755020142,11.998830653457642C5.097233755020142,11.287250653457642,4.882982755020142,10.47465065345764,4.882982755020142,9.649840653457641C4.882982755020142,7.032200653457641,7.013279755020141,4.901903653457642,9.630919755020141,4.901903653457642C12.249659755020142,4.901903653457642,14.379979755020141,7.032200653457641,14.379979755020141,9.649840653457641C14.379979755020141,12.267470653457641,12.249659755020142,14.397800653457642,9.630919755020141,14.397800653457642Z" fill="#FFFFFF" fill-opacity="1"/></g><g><path d="M9.620560731582643,7.121475458145142C9.865180731582642,7.121475458145142,10.064840731582642,7.321138458145142,10.064840731582642,7.565757458145142L10.064840731582642,11.73354545814514C10.064840731582642,11.978165458145142,9.865180731582642,12.177825458145142,9.620560731582643,12.177825458145142C9.375940731582642,12.177825458145142,9.176280731582642,11.978165458145142,9.176280731582642,11.73354545814514L9.176280731582642,7.565757458145142C9.17495073158264,7.321138458145142,9.375940731582642,7.121475458145142,9.620560731582643,7.121475458145142ZM11.414880731582642,7.7839324581451415C11.659500731582643,7.7839324581451415,11.85916073158264,7.9835944581451415,11.85916073158264,8.228215458145142L11.85916073158264,11.071095458145141C11.85916073158264,11.315715458145142,11.659500731582643,11.515375458145142,11.414880731582642,11.515375458145142C11.17026073158264,11.515375458145142,10.970600731582643,11.315715458145142,10.970600731582643,11.071095458145141L10.970600731582643,8.228215458145142C10.970600731582643,7.9835944581451415,11.171580731582642,7.7839324581451415,11.414880731582642,7.7839324581451415ZM7.824919731582642,8.784885458145142C8.069538731582641,8.784885458145142,8.269201731582642,8.984555458145142,8.269201731582642,9.229175458145141L8.269201731582642,10.068815458145142C8.269201731582642,10.313435458145142,8.069538731582641,10.513095458145141,7.824919731582642,10.513095458145141C7.580299731582642,10.513095458145141,7.380637187972642,10.313435458145142,7.380637187972642,10.068815458145142L7.380637187972642,9.229175458145141C7.379314841582642,8.985875458145141,7.580299731582642,8.784885458145142,7.824919731582642,8.784885458145142Z" fill="#FFFFFF" fill-opacity="1"/></g></g></g></svg>