<svg xmlns="http://www.w3.org/2000/svg" xmlns:xlink="http://www.w3.org/1999/xlink" fill="none" version="1.1" width="19.2001953125" height="19.2001953125" viewBox="0 0 19.2001953125 19.2001953125"><g><g><path d="M13.056,10.368C13.2679,10.368,13.44,10.1959,13.44,9.984C13.44,9.77173,13.2679,9.6,13.056,9.6C12.8441,9.6,12.672,9.77209,12.672,9.984C12.672,10.1959,12.8441,10.368,13.056,10.368ZM10.752,10.368C10.9639,10.368,11.136,10.1959,11.136,9.984C11.136,9.77173,10.9639,9.6,10.752,9.6C10.5401,9.6,10.368,9.77209,10.368,9.984C10.368,10.1959,10.5401,10.368,10.752,10.368ZM9.408,7.68C9.72587,7.68,9.984,7.42222,9.984,7.104C9.984,6.78578,9.72587,6.528,9.408,6.528C9.09013,6.528,8.832,6.78578,8.832,7.104C8.832,7.42222,9.09013,7.68,9.408,7.68ZM6.336,7.68C6.65387,7.68,6.912,7.42222,6.912,7.104C6.912,6.78578,6.65387,6.528,6.336,6.528C6.01813,6.528,5.76,6.78578,5.76,7.104C5.76,7.42222,6.01813,7.68,6.336,7.68ZM9.6,19.2C14.902,19.2,19.2,14.902,19.2,9.6C19.2,4.29796,14.902,0,9.6,0C4.29796,0,0,4.29796,0,9.6C0,14.902,4.29796,19.2,9.6,19.2ZM8.46969,11.456C8.27555,11.483,8.07573,11.4969,7.87235,11.4969C7.3632,11.4969,6.87822,11.4094,6.43769,11.2512C6.39395,11.2356,6.23715,11.1883,6.15253,11.2512Q5.96196,11.3927,5.70631,11.6871Q5.80018,11.4731,5.83147,11.1602C5.84569,11.0172,5.62773,10.917,5.584,10.8878C4.75449,10.3268,4.224,9.39982,4.224,8.43662C4.224,6.74631,5.85707,5.376,7.872,5.376C9.75324,5.376,11.3017,6.57031,11.4987,8.10453C9.76782,8.34347,8.44764,9.6032,8.44764,11.1218C8.448,11.2348,8.45511,11.3461,8.46969,11.456ZM8.67129,12.1781C8.41209,12.219,8.14471,12.2404,7.872,12.2404C7.32693,12.2404,6.80569,12.155,6.32355,11.9993C6.08107,11.9211,5.19573,12.848,4.97564,12.7356C4.8448,12.6688,5.37102,11.5726,5.24942,11.4948C4.16107,10.7996,3.45564,9.6832,3.45564,8.42418C3.45564,6.31644,5.43289,4.608,7.87164,4.608C10.1714,4.608,12.0604,6.12693,12.2684,8.0672C14.203,8.14293,15.7436,9.4816,15.7436,11.1218C15.7436,12.1404,15.1495,13.0425,14.2357,13.5986C14.0636,13.7031,14.6087,14.5856,14.4153,14.6642C14.2965,14.7125,13.446,13.9655,13.3202,14.0032C12.9372,14.1177,12.5252,14.1799,12.0956,14.1799C10.5241,14.1796,9.18435,13.3461,8.67129,12.1781Z" fill="#07C160" fill-opacity="1"/></g></g></svg>