<svg xmlns="http://www.w3.org/2000/svg" xmlns:xlink="http://www.w3.org/1999/xlink" fill="none" version="1.1" width="146" height="23.12249755859375" viewBox="0 0 146 23.12249755859375"><g><g><path d="M46.72,0.829874C47.488,1.93612,48.232,3.57113,48.304,5.03813C50.752,7.104,53.416,2.24887,46.936,0.709875L46.72,0.829874ZM50.464,6.792C50.464,8.16,50.464,9.456,50.344,10.656L44.608,10.656L44.8,11.352L50.272,11.352C49.888,14.352,48.688,16.752,44.896,18.72L45.112,19.056C49.36,17.736,51.424,15.96,52.432,13.68C54.064,15.024,55.888000000000005,17.016,56.632000000000005,18.744C59.584,20.304,61.024,14.544,52.647999999999996,13.176C52.864000000000004,12.6,53.032,12,53.152,11.352L59.44,11.352C59.775999999999996,11.352,60.04,11.232,60.088,10.968C59.056,10.056,57.376000000000005,8.784,57.376000000000005,8.784L55.912,10.656L53.272,10.656C53.416,9.456,53.488,8.184,53.512,6.792L59.176,6.792C59.512,6.792,59.775999999999996,6.672,59.824,6.408C58.816,5.54325,57.208,4.34063,57.208,4.34063L55.792,6.096L53.32,6.096C54.568,5.06213,55.912,3.6675,57.016,2.34488C57.544,2.36888,57.856,2.1525,57.976,1.86412L54.232,0.5895C53.751999999999995,2.48925,53.128,4.67738,52.672,6.096L45.064,6.096L45.256,6.792L50.464,6.792ZM38.872,1.23862C39.88,2.63363,41.056,4.65338,41.44,6.408C44.056,8.28,46.192,3.11437,39.088,1.11863L38.872,1.23862ZM43.432,10.248C44.128,10.128,44.488,9.936,44.656,9.72L41.848,7.464L40.528,9.192L37.792,9.192L37.912,9.888L40.912,9.888L40.912,18.192C39.928,18.816,38.656,19.656,37.72,20.16L39.616,22.9958C39.808,22.8746,39.903999999999996,22.7051,39.832,22.464C40.576,21.144,41.656,19.488,42.136,18.696C42.4,18.264,42.664,18.216,42.976,18.672C44.872,21.6,46.936,22.608,52,22.608L58.480000000000004,22.608C58.6,21.456,59.248000000000005,20.472,60.304,20.232L60.304,19.944C57.688,20.088,55.528,20.112,52.912,20.112C47.872,20.112,45.256,19.776,43.432,17.928L43.432,10.248ZM65.968,10.56L66.44800000000001,10.56C67.504,10.56,68.584,10.104,68.632,9.912L68.632,4.93987C69.03999999999999,4.8675,69.28,4.6995,69.376,4.48313L68.368,4.12238C69.03999999999999,3.49763,69.616,2.8485,70.072,2.24775C70.648,2.29575,70.864,2.12737,70.96000000000001,1.863L67.576,0.445126C66.544,2.8245,64.24,5.94938,61.647999999999996,7.92L61.84,8.184C63.304,7.65563,64.696,6.8865,65.968,6.02137L65.968,10.56ZM78.208,18.9911C79.144,18.9911,80.536,18.4867,80.56,18.3184L80.56,12.7448C80.99199999999999,12.6484,81.28,12.4564,81.424,12.288L78.75999999999999,10.272L77.512,11.664L68.488,11.664L65.536,10.488L65.536,19.8743L65.944,19.8743C67.096,19.8743,68.32,19.2484,68.32,18.984L68.32,12.336L77.72800000000001,12.336L77.72800000000001,18.984L78.208,18.9911ZM71.77600000000001,13.248C71.656,18.264,71.29599999999999,20.7161,62.056,22.593L62.2,23.0261C68.968,22.2803,71.872,21.0289,73.24000000000001,19.128C76.816,20.1146,79.36,21.5824,80.77600000000001,22.641C83.44,24.492,87.904,19.3687,73.50399999999999,18.696C74.176,17.52,74.368,16.128,74.56,14.52C75.112,14.52,75.376,14.304,75.47200000000001,13.992L71.77600000000001,13.248ZM83.152,5.688L82.888,5.688C82.52799999999999,6.648,82.168,7.392,81.928,7.68C81.73599999999999,7.848,81.568,7.896,81.256,7.92C80.896,7.944,80.056,7.944,79.19200000000001,7.944L76.744,7.944C75.928,7.944,75.78399999999999,7.824,75.78399999999999,7.464L75.78399999999999,6.288C77.848,5.424,79.72,4.464,81.088,3.576C81.856,3.696,82.288,3.576,82.47999999999999,3.288L79.12,1.44C78.304,2.304,77.128,3.264,75.78399999999999,4.248L75.78399999999999,1.536C76.312,1.464,76.52799999999999,1.248,76.576,0.912001L73.168,0.622126L73.168,6C71.824,6.792,70.456,7.56,69.136,8.16L69.256,8.448C70.576,8.112,71.872,7.704,73.168,7.272L73.168,7.944C73.168,9.72,73.744,10.176,76.24000000000001,10.176L78.928,10.176C83.152,10.176,84.232,9.84,84.232,8.736C84.232,8.256,84.01599999999999,7.992,83.22399999999999,7.704L83.152,5.688ZM90.52000000000001,1.09463C91.52799999999999,2.27287,92.70400000000001,4.02787,93.064,5.59087C95.632,7.344,97.648,2.27287,90.73599999999999,0.950251L90.52000000000001,1.09463ZM91.55199999999999,13.968L91.55199999999999,10.704L95.512,10.704L95.512,13.968L91.55199999999999,13.968ZM95.512,6.912L95.512,10.032L91.55199999999999,10.032L91.55199999999999,6.912L95.512,6.912ZM102.352,6.912L102.352,10.032L98.416,10.032L98.416,6.912L102.352,6.912ZM98.416,13.968L98.416,10.704L102.352,10.704L102.352,13.968L98.416,13.968ZM103.552,17.52L98.416,17.52L98.416,14.664L102.352,14.664L102.352,15.648L102.832,15.648C103.816,15.648,105.184,15.048,105.208,14.832L105.208,7.344C105.664,7.248,105.976,7.056,106.096,6.864L103.408,4.82137L102.112,6.24L98.656,6.24C100.19200000000001,5.3265,101.848,4.00388,103.264,2.60925C103.816,2.68163,104.128,2.48925,104.272,2.2245L100.696,0.613501C99.904,2.65725,98.824,4.86975,97.98400000000001,6.24L91.768,6.24L88.744,5.03775L88.744,16.032L89.152,16.032C90.328,16.032,91.55199999999999,15.384,91.55199999999999,15.12L91.55199999999999,14.664L95.512,14.664L95.512,17.52L85.672,17.52L85.84,18.216L95.512,18.216L95.512,23.1225L96.03999999999999,23.1225C97.52799999999999,23.1225,98.416,22.5454,98.416,22.377L98.416,18.216L107.608,18.216C107.968,18.216,108.232,18.096,108.304,17.832C107.152,16.848,105.256,15.456,105.256,15.456L103.552,17.52Z" fill="#333333" fill-opacity="1"/></g><g><rect x="0" y="12" width="27" height="1" rx="0" fill="#333333" fill-opacity="1"/></g><g><rect x="119" y="12" width="27" height="1" rx="0" fill="#333333" fill-opacity="1"/></g></g></svg>