<svg xmlns="http://www.w3.org/2000/svg" xmlns:xlink="http://www.w3.org/1999/xlink" fill="none" version="1.1" width="41.32373046875" height="18" viewBox="0 0 41.32373046875 18"><g transform="matrix(1,-5.400848479553133e-8,5.400848479553133e-8,1,0,0)"><g><path d="M0 6.00048828125C4.90527396329193e-16 2.686779782265239 2.6862915010152397 0.00048828125 6 0.00048828125L41.32373046875 0.00048828125C41.32373046875 0.00048828125 41.32373046875 0.00048828125 41.32373046875 0.00048828125L41.32373046875 11.617532730102539C41.32373046875 14.931241229087298 38.63743896773476 17.61753273010254 35.32373046875 17.61753273010254L0 17.61753273010254C0 17.61753273010254 0 17.61753273010254 0 17.61753273010254Z" fill="#FFF7CB" fill-opacity="1"/></g><g><path d="M6.58162109375,5.16L6.58162109375,6.09L12.971621093749999,6.09L12.971621093749999,8.51L8.02162109375,8.51L8.02162109375,6.99L7.05162109375,6.99L7.05162109375,11.86C7.05162109375,13.23,7.59162109375,13.56,9.36162109375,13.56C9.76162109375,13.56,12.49162109375,13.56,12.93162109375,13.56C14.66162109375,13.56,15.04162109375,13.01,15.25162109375,11.15C14.97162109375,11.09,14.54162109375,10.93,14.29162109375,10.77C14.15162109375,12.31,13.98162109375,12.62,12.91162109375,12.62C12.281621093750001,12.62,9.851621093750001,12.62,9.33162109375,12.62C8.23162109375,12.62,8.02162109375,12.5,8.02162109375,11.87L8.02162109375,9.44L12.971621093749999,9.44L12.971621093749999,9.93L13.96162109375,9.93L13.96162109375,5.16L6.58162109375,5.16ZM16.971621093750002,5.30672C17.48162109375,5.77734,18.18162109375,6.43828,18.52162109375,6.83891L19.171621093749998,6.14797C18.82162109375,5.76734,18.101621093749998,5.14641,17.601621093749998,4.70578L16.971621093750002,5.30672ZM21.79162109375,4.57563C21.77162109375,7.91,21.84162109375,11.3425,19.31162109375,13.1542C19.57162109375,13.3142,19.87162109375,13.6045,20.031621093749997,13.8447C21.291621093750003,12.8939,21.96162109375,11.5728,22.32162109375,10.0514C22.71162109375,11.4027,23.40162109375,12.9239,24.71162109375,13.8447C24.86162109375,13.6045,25.13162109375,13.3142,25.39162109375,13.1341C23.19162109375,11.6628,22.80162109375,8.55,22.67162109375,7.55984C22.74162109375,6.57844,22.75162109375,5.57703,22.76162109375,4.57563L21.79162109375,4.57563ZM16.09162109375,7.67L16.09162109375,8.58L17.70162109375,8.58L17.70162109375,11.843C17.70162109375,12.3434,17.351621093749998,12.7037,17.13162109375,12.8639C17.291621093750003,13.0141,17.541621093750003,13.3444,17.63162109375,13.5445C17.791621093750003,13.3344,18.08162109375,13.0941,19.98162109375,11.743C19.89162109375,11.5527,19.76162109375,11.1923,19.70162109375,10.9422L18.62162109375,11.6728L18.62162109375,7.67L16.09162109375,7.67ZM26.59162109375,5.35C27.13162109375,5.82,27.83162109375,6.48,28.15162109375,6.92L28.80162109375,6.26C28.47162109375,5.84,27.75162109375,5.20984,27.21162109375,4.76781L26.59162109375,5.35ZM29.20162109375,12.57L29.20162109375,13.45L35.31162109375,13.45L35.31162109375,12.57L33.09162109375,12.57L33.09162109375,9.49L34.921621093750005,9.49L34.921621093750005,8.61L33.09162109375,8.61L33.09162109375,6.15L35.11162109375,6.15L35.11162109375,5.26L29.50162109375,5.26L29.50162109375,6.15L32.12162109375,6.15L32.12162109375,12.57L30.94162109375,12.57L30.94162109375,7.87L30.00162109375,7.87L30.00162109375,12.57L29.20162109375,12.57ZM26.11162109375,7.67L26.11162109375,8.58L27.42162109375,8.58L27.42162109375,11.79C27.42162109375,12.36,27.05162109375,12.79,26.83162109375,12.98C27.00162109375,13.11,27.30162109375,13.42,27.41162109375,13.6111C27.57162109375,13.38,27.87162109375,13.14,29.63162109375,11.69C29.52162109375,11.51,29.34162109375,11.12,29.26162109375,10.87L28.34162109375,11.6L28.34162109375,7.67L26.11162109375,7.67Z" fill="#FFB540" fill-opacity="1"/></g></g></svg>